<svg width="132" height="44" viewBox="0 0 132 44" fill="none" xmlns="http://www.w3.org/2000/svg">
<g id="01">
<g id="Group">
<path id="Vector" d="M11.9274 0.976562V1.16213L11.1566 1.3477V9.56983L11.9274 9.7554V9.94097H8.27316V9.7554L9.044 9.56983V2.56104L6.0178 10.0694H5.63236L1.70687 2.56104V9.36999L2.73463 9.7554V9.94097H0.293701V9.7554L1.32147 9.36999V1.3477L0.550632 1.16213V0.976562H2.14937C2.39204 0.976562 2.60616 1.00511 2.77746 1.06221C2.94875 1.11931 3.12007 1.19068 3.24854 1.2906C3.39129 1.39052 3.50548 1.50472 3.6054 1.63319C3.70533 1.76166 3.79098 1.91868 3.87662 2.0757L6.67442 7.42865L8.8156 2.0757C8.88697 1.89013 8.95836 1.73311 9.05829 1.60464C9.14393 1.47617 9.2581 1.36198 9.38657 1.26205C9.51504 1.16213 9.67209 1.09076 9.85766 1.04793C10.0432 1.00511 10.2716 0.976562 10.5571 0.976562H11.9274Z" fill="#626260"/>
<path id="Vector_2" d="M16.4953 3.36047C17.0234 3.36047 17.5088 3.43185 17.9227 3.58887C18.3367 3.74589 18.6936 3.97428 18.9933 4.25977C19.2931 4.55953 19.5072 4.9164 19.6642 5.33036C19.8212 5.74432 19.8926 6.22965 19.8926 6.75781C19.8926 7.28597 19.8212 7.7713 19.6642 8.18527C19.5072 8.59923 19.2788 8.95609 18.9933 9.25586C18.6936 9.55562 18.3367 9.76974 17.9227 9.92676C17.5088 10.0838 17.0234 10.1552 16.4953 10.1552C15.9671 10.1552 15.4818 10.0838 15.0678 9.92676C14.6539 9.76974 14.297 9.54135 13.9972 9.25586C13.6975 8.95609 13.4833 8.59923 13.3263 8.18527C13.1693 7.7713 13.0979 7.28597 13.0979 6.75781C13.0979 6.22965 13.1693 5.74432 13.3263 5.33036C13.4833 4.9164 13.7117 4.55953 13.9972 4.25977C14.297 3.96 14.6539 3.74589 15.0678 3.58887C15.4818 3.43185 15.9528 3.36047 16.4953 3.36047ZM16.4953 9.91249C16.638 9.91249 16.7808 9.86966 16.9378 9.76974C17.0805 9.66982 17.209 9.5128 17.3232 9.27013C17.4374 9.02746 17.5373 8.71342 17.6087 8.31374C17.6801 7.89978 17.7229 7.38589 17.7229 6.77209C17.7229 6.14401 17.6801 5.63012 17.6087 5.23044C17.5373 4.83075 17.4374 4.50244 17.3232 4.27404C17.209 4.04565 17.0805 3.87436 16.9378 3.77444C16.795 3.67451 16.6523 3.63169 16.4953 3.63169C16.3525 3.63169 16.2098 3.67451 16.0528 3.77444C15.91 3.87436 15.7815 4.03138 15.6673 4.27404C15.5531 4.51671 15.4532 4.83075 15.3819 5.23044C15.3105 5.6444 15.2676 6.15828 15.2676 6.77209C15.2676 7.40017 15.3105 7.91405 15.3819 8.31374C15.4532 8.71342 15.5531 9.04174 15.6673 9.27013C15.7815 9.49852 15.91 9.66982 16.0528 9.76974C16.1955 9.85539 16.3383 9.91249 16.4953 9.91249Z" fill="#626260"/>
<path id="Vector_3" d="M26.1306 0.976562C26.9014 0.976562 27.2868 1.36197 27.2868 2.1328V9.58411L28.0577 9.76968V9.95525H26.9014C26.5874 9.95525 26.3447 9.91242 26.1591 9.8125C25.9736 9.71258 25.8165 9.59838 25.7166 9.48419C25.5881 9.34144 25.4883 9.17015 25.4312 8.99885C25.317 9.22725 25.1742 9.41281 25.0029 9.58411C24.8601 9.72685 24.6603 9.85532 24.4176 9.98379C24.175 10.1123 23.8895 10.1694 23.5611 10.1694C23.19 10.1694 22.8474 10.098 22.5334 9.95525C22.2051 9.8125 21.9339 9.59838 21.7055 9.31289C21.4771 9.0274 21.2773 8.67054 21.1488 8.25658C21.006 7.82834 20.9489 7.343 20.9489 6.77202C20.9489 6.20104 21.0203 5.71571 21.1488 5.28747C21.2915 4.85924 21.4771 4.51665 21.734 4.23116C21.9767 3.94567 22.2765 3.73155 22.6191 3.5888C22.9617 3.44606 23.3471 3.37468 23.7753 3.37468C24.0037 3.37468 24.2035 3.40323 24.3891 3.44606C24.5747 3.50315 24.7317 3.56025 24.8601 3.63163C25.0172 3.703 25.1456 3.78865 25.2598 3.88857V1.39053L24.489 1.20495V1.01939H26.1306V0.976562ZM25.2313 4.2597C25.1314 4.15978 25.0457 4.07414 24.9315 4.00277C24.8316 3.93139 24.7317 3.87429 24.6175 3.81719C24.5033 3.7601 24.3891 3.74582 24.2606 3.74582C24.1036 3.74582 23.9466 3.78865 23.8038 3.87429C23.6611 3.95994 23.5469 4.10269 23.4327 4.3168C23.3328 4.53092 23.2471 4.84496 23.19 5.23037C23.1329 5.63006 23.1044 6.12967 23.1044 6.75775C23.1044 7.37155 23.1329 7.85689 23.19 8.2423C23.2471 8.62771 23.3185 8.92748 23.4184 9.1416C23.5041 9.35571 23.604 9.51274 23.7325 9.58411C23.8467 9.65548 23.9609 9.6983 24.0751 9.6983C24.2749 9.6983 24.4462 9.64121 24.5889 9.54128C24.7317 9.44136 24.8459 9.31289 24.9458 9.18442C25.06 9.0274 25.1599 8.8561 25.2456 8.67054V4.2597H25.2313Z" fill="#626260"/>
<path id="Vector_4" d="M32.3543 10.1694C31.2551 10.1694 30.3987 9.86967 29.7992 9.27014C29.1854 8.67061 28.8856 7.82841 28.8856 6.77209C28.8856 6.24394 28.957 5.7586 29.114 5.34464C29.271 4.93068 29.4851 4.57382 29.7563 4.27405C30.0276 3.97429 30.3558 3.76017 30.7555 3.60315C31.1409 3.44613 31.5692 3.37476 32.0402 3.37476C32.5256 3.37476 32.9538 3.44613 33.325 3.5746C33.7104 3.71734 34.0244 3.90291 34.2956 4.13131C34.5669 4.3597 34.7667 4.63092 34.9094 4.94496C35.0522 5.259 35.1235 5.58731 35.1235 5.94417C35.1235 6.05837 35.1236 6.17257 35.1093 6.25821C35.095 6.34386 35.0807 6.42951 35.0665 6.50088C35.0379 6.58653 35.0236 6.6579 34.9951 6.715C34.6239 6.78637 34.2243 6.85774 33.796 6.90057C33.4392 6.95766 33.0252 7.00049 32.5541 7.02904C32.0831 7.05759 31.5977 7.08614 31.0839 7.08614C31.0839 7.61429 31.1267 8.0568 31.198 8.41367C31.2694 8.77053 31.3836 9.05602 31.5121 9.25586C31.6548 9.46998 31.8118 9.61273 31.9974 9.69838C32.183 9.78402 32.3971 9.82685 32.6113 9.82685C32.8682 9.82685 33.1108 9.78402 33.3392 9.6841C33.5676 9.58418 33.7675 9.46998 33.9245 9.31296C34.0958 9.15594 34.2242 8.97037 34.3242 8.77053C34.4241 8.57069 34.4669 8.37084 34.4669 8.15673H34.781C34.781 8.41367 34.7239 8.65633 34.6097 8.899C34.4955 9.14167 34.3242 9.35579 34.1101 9.54135C33.8959 9.72692 33.639 9.86967 33.3392 9.98386C33.0537 10.1123 32.7254 10.1694 32.3543 10.1694ZM31.0696 6.75782C31.3551 6.75782 31.612 6.75782 31.8404 6.74355C32.0688 6.72927 32.2544 6.715 32.4114 6.70072C32.597 6.68645 32.7397 6.6579 32.8682 6.64362C32.8825 6.55798 32.911 6.45806 32.9253 6.35813C32.9396 6.25821 32.9538 6.15829 32.9681 6.04409C32.9824 5.9299 32.9824 5.80143 32.9824 5.67296C32.9824 5.28754 32.9538 4.95923 32.8967 4.70229C32.8396 4.44535 32.7682 4.23123 32.6683 4.05993C32.5827 3.90291 32.4827 3.77444 32.3543 3.71734C32.2258 3.66025 32.1259 3.61742 32.0117 3.61742C31.8975 3.61742 31.7833 3.66025 31.6691 3.74589C31.5549 3.83154 31.455 3.98856 31.3551 4.20268C31.2694 4.43107 31.1838 4.74511 31.1267 5.15907C31.0696 5.57303 31.0696 6.10119 31.0696 6.75782Z" fill="#626260"/>
<path id="Vector_5" d="M40.5193 3.80293C40.2624 3.80293 40.034 3.86003 39.8342 3.95995C39.6343 4.05987 39.463 4.18834 39.3203 4.31681C39.1632 4.47383 39.0348 4.64513 38.9063 4.8307V9.58412L39.6771 9.76969V9.95526H36.08V9.76969L36.8508 9.58412V3.9314L36.08 3.74583V3.56026H37.2362C37.536 3.56026 37.7786 3.61736 37.9785 3.71728C38.164 3.81721 38.321 3.9314 38.4352 4.0456C38.5637 4.18834 38.6637 4.34536 38.7208 4.51666C38.8492 4.33109 39.0062 4.1598 39.1918 4.00278C39.3488 3.8743 39.5487 3.76011 39.7913 3.64591C40.034 3.53172 40.3052 3.48889 40.6335 3.48889C41.0903 3.48889 41.4329 3.60309 41.6613 3.80293C41.8897 4.01705 41.9896 4.31682 41.9896 4.70223C41.9896 4.98772 41.904 5.23039 41.7327 5.40168C41.5614 5.57297 41.3187 5.65862 41.0332 5.65862C40.9618 5.65862 40.9047 5.65862 40.8334 5.65862C40.762 5.65862 40.7192 5.64435 40.6764 5.64435C40.6193 5.63007 40.5621 5.63007 40.5193 5.60152V3.80293Z" fill="#626260"/>
<path id="Vector_6" d="M47.5138 5.4731C47.5138 5.18761 47.4853 4.93067 47.4282 4.71655C47.3711 4.50243 47.2998 4.33113 47.1998 4.20266C47.1142 4.05992 47.0143 3.96 46.8858 3.9029C46.7716 3.8458 46.6574 3.80298 46.5432 3.80298C46.3433 3.80298 46.1721 3.86008 46.0293 3.96C45.8866 4.05992 45.7581 4.18839 45.6724 4.31686C45.5582 4.47388 45.4726 4.64518 45.3869 4.83074V9.58416L46.1578 9.76973V9.9553H42.5606V9.76973L43.3314 9.58416V3.93145L42.5606 3.74588V3.56031H43.7168C44.0166 3.56031 44.2593 3.61741 44.4591 3.71733C44.6447 3.81725 44.8017 3.93145 44.9159 4.04564C45.0444 4.18839 45.1443 4.34541 45.2014 4.5167C45.3156 4.30258 45.4583 4.10274 45.6296 3.93145C45.7724 3.7887 45.9722 3.66023 46.2006 3.53176C46.429 3.40329 46.7287 3.34619 47.0713 3.34619C47.4425 3.34619 47.7851 3.40329 48.0848 3.53176C48.3989 3.64596 48.6558 3.81725 48.8699 4.00282C49.084 4.20266 49.2554 4.41678 49.3838 4.67372C49.5123 4.93067 49.5694 5.18761 49.5694 5.45882V9.56989L50.3402 9.75546V9.94103H48.6701C47.8993 9.94103 47.5138 9.55561 47.5138 8.78479V5.4731Z" fill="#626260"/>
<path id="Vector_7" d="M1.64978 18.9768V18.4486H11.5706V18.9768L9.48649 19.5049V30.2822H16.9663V19.5049L14.8823 18.9768V18.4486H24.8031V18.9768L22.719 19.5049V41.7732L24.8031 42.3014V42.8295H14.8823V42.2871L16.9663 41.7589V31.1529H9.48649V41.7589L11.5706 42.2871V42.8152H1.64978V42.2871L3.73385 41.7589V19.4906L1.64978 18.9768Z" fill="#626260"/>
<path id="Vector_8" d="M37.1363 24.8865C38.578 24.8865 39.8627 25.1006 41.0046 25.5146C42.1466 25.9285 43.103 26.5423 43.9024 27.3417C44.7017 28.1411 45.3155 29.1117 45.7295 30.2537C46.1435 31.3957 46.3576 32.6804 46.3576 34.1221C46.3576 35.5638 46.1435 36.8485 45.7295 37.9905C45.3155 39.1325 44.7017 40.0889 43.9024 40.8882C43.103 41.6876 42.1323 42.3014 41.0046 42.7154C39.8627 43.1293 38.578 43.3434 37.1363 43.3434C35.6945 43.3434 34.4098 43.1293 33.2679 42.7154C32.1259 42.3014 31.1695 41.6876 30.3701 40.8882C29.5708 40.0889 28.957 39.1182 28.543 37.9905C28.129 36.8485 27.9149 35.5638 27.9149 34.1221C27.9149 32.6804 28.129 31.3957 28.543 30.2537C28.957 29.1117 29.5708 28.1553 30.3701 27.3417C31.1695 26.528 32.1402 25.9285 33.2679 25.5146C34.4098 25.1006 35.6945 24.8865 37.1363 24.8865ZM37.1363 42.6297C37.5359 42.6297 37.9214 42.5013 38.3211 42.2443C38.7208 41.9874 39.0633 41.5449 39.3774 40.9025C39.6914 40.2602 39.9484 39.3894 40.1482 38.2903C40.348 37.1911 40.448 35.7922 40.448 34.0936C40.448 32.3949 40.348 30.996 40.1482 29.8968C39.9484 28.7977 39.6914 27.927 39.3774 27.2846C39.0633 26.6422 38.7065 26.1997 38.3211 25.9428C37.9357 25.6859 37.5359 25.5574 37.1363 25.5574C36.7366 25.5574 36.3512 25.6859 35.9515 25.9428C35.5518 26.1997 35.2092 26.6422 34.8951 27.2846C34.5811 27.927 34.3242 28.7977 34.1243 29.8968C33.9245 30.996 33.8246 32.3949 33.8246 34.0936C33.8246 35.7922 33.9245 37.1911 34.1243 38.2903C34.3242 39.3894 34.5811 40.2602 34.8951 40.9025C35.2092 41.5449 35.5661 41.9874 35.9515 42.2443C36.3512 42.5013 36.7366 42.6297 37.1363 42.6297Z" fill="#626260"/>
<path id="Vector_9" d="M72.4372 30.6248C72.4372 29.7969 72.3658 29.0832 72.2231 28.5265C72.0803 27.9698 71.909 27.4987 71.6806 27.1418C71.4522 26.785 71.2096 26.528 70.9526 26.3567C70.6814 26.1997 70.4245 26.1141 70.1675 26.1141C69.725 26.1141 69.3396 26.2568 68.997 26.5423C68.6544 26.8278 68.3689 27.1561 68.112 27.4987C67.8408 27.9127 67.5838 28.3837 67.384 28.8833V41.759L69.4823 42.2871V42.8153H59.7471V42.2871L61.8312 41.759V30.6248C61.8312 29.7969 61.7598 29.0832 61.6171 28.5265C61.4743 27.9698 61.303 27.4987 61.0746 27.1418C60.8462 26.785 60.6036 26.528 60.3467 26.3567C60.0754 26.1997 59.8185 26.1141 59.5615 26.1141C59.119 26.1141 58.7336 26.2568 58.391 26.5423C58.0485 26.8278 57.7629 27.1561 57.506 27.4987C57.2205 27.9127 56.9779 28.3837 56.778 28.8833V41.759L58.8621 42.2871V42.8153H49.1268V42.2871L51.211 41.759V26.4567L49.1268 25.9285V25.4003H52.253C53.0666 25.4003 53.7375 25.5431 54.2514 25.8143C54.7796 26.0855 55.1793 26.3996 55.4933 26.7136C55.8359 27.1133 56.0928 27.5415 56.2641 27.9983C56.5639 27.4131 56.935 26.8992 57.3775 26.4281C57.7772 26.0284 58.2626 25.6716 58.8336 25.3432C59.4188 25.0149 60.1183 24.8579 60.9604 24.8579C62.3451 24.8579 63.5584 25.172 64.5576 25.7858C65.5711 26.3996 66.342 27.1989 66.8701 28.1696C67.1699 27.5701 67.541 27.0276 67.9835 26.528C68.3832 26.1141 68.8685 25.7287 69.4395 25.3861C70.0248 25.0435 70.7242 24.8579 71.5664 24.8579C72.5228 24.8579 73.3793 25.0149 74.1787 25.3147C74.9638 25.6145 75.6489 26.0284 76.2199 26.5566C76.7909 27.0847 77.2334 27.6843 77.5475 28.3837C77.8615 29.0832 78.0185 29.8254 78.0185 30.6105V41.7447L80.1026 42.2728V42.801H75.5776C73.4935 42.801 72.4514 41.759 72.4514 39.6749V30.6248H72.4372Z" fill="#626260"/>
<path id="Vector_10" d="M91.5793 43.3292C88.6102 43.3292 86.2978 42.5155 84.6562 40.8739C83.0146 39.2324 82.1867 36.9913 82.1867 34.1078C82.1867 32.6661 82.4008 31.3814 82.8148 30.2394C83.2287 29.0975 83.814 28.1411 84.5563 27.3274C85.2985 26.528 86.1978 25.9142 87.2542 25.5003C88.3105 25.0863 89.4667 24.8722 90.7086 24.8722C92.0076 24.8722 93.1781 25.0578 94.2059 25.4289C95.2336 25.8 96.1186 26.2996 96.8324 26.9277C97.5461 27.5558 98.1028 28.2981 98.4882 29.1403C98.8736 29.9825 99.0592 30.8818 99.0592 31.8382C99.0592 32.1665 99.0449 32.452 99.0021 32.6946C98.9593 32.9373 98.9307 33.1514 98.8736 33.337C98.8022 33.5654 98.7451 33.7652 98.7023 33.9222C97.6746 34.1364 96.604 34.3077 95.462 34.4504C94.4914 34.5931 93.3636 34.7073 92.0932 34.8215C90.8228 34.9215 89.481 34.9786 88.0964 34.9786C88.0964 36.4203 88.1963 37.6194 88.4104 38.5757C88.6245 39.5321 88.91 40.303 89.2811 40.8739C89.6523 41.4449 90.0948 41.8446 90.6086 42.0873C91.1225 42.3299 91.6793 42.4584 92.2788 42.4584C92.9782 42.4584 93.6349 42.3299 94.2487 42.073C94.8625 41.8161 95.3906 41.4735 95.8474 41.0452C96.3042 40.617 96.6611 40.1317 96.9323 39.5892C97.2035 39.0468 97.332 38.4901 97.332 37.9334H98.2027C98.2027 38.6328 98.0457 39.3037 97.7317 39.9461C97.4176 40.6027 96.9751 41.1737 96.3899 41.6733C95.8046 42.1729 95.1194 42.5726 94.3058 42.8724C93.4779 43.1721 92.5643 43.3292 91.5793 43.3292ZM88.0964 34.1078C88.8815 34.1078 89.5809 34.0935 90.1804 34.0507C90.78 34.0079 91.2938 33.9793 91.7078 33.9365C92.1931 33.8937 92.6071 33.8366 92.964 33.7652C93.0068 33.5368 93.0639 33.2799 93.1353 32.9944C93.1781 32.7375 93.2209 32.452 93.2494 32.1379C93.278 31.8239 93.3066 31.4956 93.3066 31.153C93.3066 30.1109 93.2209 29.2402 93.0639 28.5265C92.9068 27.8127 92.6927 27.2418 92.4501 26.7993C92.2074 26.3567 91.9219 26.0427 91.6222 25.8571C91.3081 25.6716 90.9941 25.5716 90.6943 25.5716C90.3945 25.5716 90.0805 25.6858 89.7665 25.9C89.4524 26.1283 89.1812 26.5423 88.9385 27.1561C88.6959 27.7699 88.496 28.6407 88.3248 29.7541C88.182 30.8675 88.0964 32.3235 88.0964 34.1078Z" fill="#626260"/>
</g>
<g id="Group_2">
<path id="Vector_11" d="M116.146 42.4584V28.3409L103.67 18.4629V42.4584H116.146Z" fill="#626260"/>
</g>
<g id="Group_3">
<path id="Vector_12" d="M131.577 42.4584V28.3409L119.3 18.4629V42.4584H131.577Z" fill="#626260"/>
</g>
</g>
</svg>
