<svg width="103" height="103" viewBox="0 0 103 103" fill="none" xmlns="http://www.w3.org/2000/svg">
<g id="02">
<g id="Group">
<path id="Vector" d="M51.7365 101.606C79.5972 101.606 102.183 79.0206 102.183 51.16C102.183 23.2993 79.5972 0.713745 51.7365 0.713745C23.8759 0.713745 1.29032 23.2993 1.29032 51.16C1.29032 79.0206 23.8759 101.606 51.7365 101.606Z" fill="white"/>
<path id="Vector_2" d="M51.7365 102.32C23.5301 102.32 0.576599 79.3664 0.576599 51.1599C0.576599 22.9535 23.5301 0 51.7365 0C79.943 0 102.896 22.9535 102.896 51.1599C102.896 79.3664 79.943 102.32 51.7365 102.32ZM51.7365 1.42745C24.3152 1.42745 2.00405 23.7386 2.00405 51.1599C2.00405 78.5813 24.3152 100.892 51.7365 100.892C79.1579 100.892 101.469 78.5813 101.469 51.1599C101.469 23.7386 79.1579 1.42745 51.7365 1.42745Z" fill="#626260"/>
</g>
<g id="Group_2">
<path id="Vector_3" d="M58.9309 5.83827C59.2735 5.86682 59.5733 5.88109 59.816 5.88109L59.7874 6.10949C59.3877 6.16658 59.0451 6.46635 58.7739 7.03733L55.3766 13.832L55.2767 13.8177L55.191 13.8035L53.0356 6.22368C52.8928 5.72407 52.6501 5.45286 52.3076 5.41003L52.3361 5.18164C52.6501 5.23874 53.0641 5.28156 53.578 5.33866C54.2489 5.39576 54.7485 5.43858 55.0768 5.43858L55.0483 5.66697C54.7485 5.6527 54.5344 5.66697 54.4059 5.7098C54.2774 5.75262 54.2061 5.86682 54.1918 6.00956C54.1775 6.13803 54.2061 6.3236 54.2774 6.56627L55.8619 12.3617L58.2172 7.62259C58.4171 7.23717 58.517 6.92313 58.5455 6.69474C58.5741 6.45207 58.5027 6.26651 58.3457 6.13803C58.1887 6.00956 57.9317 5.93819 57.5891 5.89537L57.6177 5.66697C58.0316 5.73835 58.4742 5.79545 58.9309 5.83827Z" fill="#626260"/>
<path id="Vector_4" d="M68.5234 8.85021C68.3807 8.85021 68.2665 8.90731 68.1808 9.02151C68.0952 9.13571 67.9953 9.32127 67.8953 9.59249L65.8541 15.0168C65.7542 15.288 65.6971 15.5021 65.6971 15.6449C65.6971 15.7876 65.7399 15.9018 65.8398 15.9875C65.9397 16.0731 66.1253 16.1731 66.3822 16.2872L66.2966 16.5014C65.9683 16.3586 65.5115 16.1731 64.9262 15.9447C64.2982 15.702 63.8271 15.545 63.5131 15.4451L63.5987 15.2309C63.8699 15.3166 64.0698 15.3594 64.1982 15.3594C64.3267 15.3594 64.4552 15.3023 64.5408 15.1881C64.6265 15.0739 64.7264 14.8883 64.8263 14.6171L66.8676 9.1928C66.9675 8.92159 67.0246 8.70747 67.0246 8.56472C67.0246 8.42198 66.9818 8.30778 66.8818 8.22214C66.7819 8.13649 66.5964 8.03657 66.3394 7.92237L66.4251 7.70825C66.7248 7.83672 67.1816 8.02229 67.8097 8.26496C68.3949 8.49335 68.866 8.65037 69.2086 8.75029L69.1229 8.96441C68.866 8.87876 68.6662 8.83594 68.5234 8.85021Z" fill="#626260"/>
<path id="Vector_5" d="M81.2278 16.4014C81.085 16.3728 80.9423 16.4157 80.8138 16.5013C80.6853 16.5869 80.5283 16.7582 80.357 17.0009L76.2174 22.6108L76.0033 22.4538L76.56 13.4323L72.8914 18.3998C72.7201 18.6425 72.6059 18.8423 72.5488 18.9993C72.4917 19.1564 72.5203 19.2991 72.5917 19.4419C72.663 19.5846 72.8343 19.7416 73.077 19.9415L72.9342 20.127C72.7201 19.9415 72.4061 19.6988 71.9921 19.3848C71.621 19.1135 71.3212 18.8994 71.0928 18.771L71.2356 18.5854C71.464 18.7424 71.6495 18.8281 71.7923 18.8423C71.935 18.8709 72.0778 18.8281 72.2062 18.7424C72.3347 18.6425 72.4917 18.4855 72.663 18.2428L76.0318 13.6749C76.2031 13.4323 76.3173 13.2467 76.3601 13.1182C76.403 12.9898 76.3887 12.8613 76.3173 12.7471C76.2459 12.6329 76.1032 12.4902 75.8748 12.3046L76.0175 12.119C76.2031 12.2903 76.4886 12.5187 76.874 12.7899C77.1595 13.004 77.4022 13.1753 77.6306 13.3038L77.1738 20.8693L80.1429 16.8439C80.3142 16.6012 80.4427 16.4014 80.4855 16.2444C80.5283 16.0873 80.514 15.9446 80.4427 15.8018C80.3713 15.6591 80.2 15.4878 79.9573 15.3022L80.1001 15.1167C80.3142 15.3022 80.6282 15.5449 81.0422 15.8589C81.4133 16.1302 81.7131 16.3443 81.9415 16.4728L81.7987 16.6583C81.5561 16.5156 81.3705 16.4157 81.2278 16.4014Z" fill="#626260"/>
<path id="Vector_6" d="M86.0097 22.8392C86.3809 22.568 86.7663 22.2682 87.1802 21.8971C87.5371 22.4395 88.1652 23.3388 89.0645 24.6093C89.9638 25.8654 90.6061 26.7504 90.9915 27.2643C90.5062 27.5498 90.0922 27.8068 89.7211 28.0637C89.4071 28.2921 89.1501 28.4919 88.9646 28.6489L88.8075 28.4348C89.2643 28.0351 89.5784 27.7068 89.7639 27.4642C89.9495 27.2215 90.0209 26.9646 90.0066 26.6933C89.9923 26.4221 89.821 26.0938 89.5498 25.6941L89.1787 25.1802L83.7686 29.0344C83.5117 29.2199 83.3261 29.3912 83.2405 29.5197C83.1548 29.6482 83.1263 29.8052 83.1834 29.9765C83.2262 30.1335 83.3547 30.3619 83.5402 30.6474L83.3547 30.7901C83.1406 30.4475 82.8122 29.9622 82.384 29.377C81.9272 28.7346 81.5846 28.2778 81.3562 27.9923L81.5418 27.8496C81.7559 28.1208 81.9272 28.3064 82.07 28.4063C82.2127 28.5062 82.3555 28.5348 82.5125 28.4919C82.6695 28.4491 82.8836 28.3349 83.1405 28.1493L88.5506 24.2952L88.1795 23.7813C87.894 23.3816 87.637 23.139 87.3944 23.0248C87.1517 22.9106 86.8805 22.8963 86.595 22.9962C86.3095 23.0962 85.8955 23.2817 85.3674 23.5815L85.2104 23.3674C85.4245 23.2532 85.6814 23.0819 86.0097 22.8392Z" fill="#626260"/>
<path id="Vector_7" d="M88.7504 42.6523L88.522 42.7237C88.4364 42.4096 88.3222 42.0099 88.1509 41.5246C87.9368 40.8965 87.7655 40.4255 87.637 40.1114L87.8654 40.04C87.9653 40.3113 88.0795 40.5111 88.1652 40.611C88.2651 40.711 88.3936 40.7395 88.5363 40.6824C88.6648 40.6396 88.8218 40.5397 89.0074 40.3826L90.5918 39.0837L89.6925 36.4143L88.365 36.3572C87.9368 36.3287 87.6085 36.3572 87.3801 36.4429C87.1517 36.5285 87.0089 36.657 86.9518 36.8426C86.909 37.0281 86.9375 37.2993 87.0375 37.6277L86.8091 37.699C86.6949 37.2708 86.5521 36.8426 86.4094 36.4143C86.2952 36.086 86.1953 35.8148 86.0954 35.6007L86.3237 35.5293C86.5236 35.8719 86.9518 36.0575 87.5799 36.0717L95.174 36.4143L95.2311 36.5856L89.1787 41.6245C88.8075 41.9814 88.6648 42.3097 88.7504 42.6523ZM93.7037 36.5856L89.9637 36.4286L90.8059 38.9409L93.7037 36.5856Z" fill="#626260"/>
<path id="Vector_8" d="M89.7925 53.5724C89.9352 53.5153 90.0066 53.4439 90.0066 53.344C90.0066 53.2869 89.9923 53.2441 89.9638 53.2013C89.9352 53.1584 89.8781 53.0728 89.7925 52.9586C89.5784 52.6874 89.4213 52.4019 89.3071 52.1164C89.1929 51.8309 89.1358 51.5026 89.1358 51.1457C89.1216 50.3464 89.2786 49.6612 89.5926 49.0759C89.9209 48.4907 90.3777 48.0481 91.0058 47.7341C91.6196 47.4201 92.3619 47.263 93.2326 47.2488C94.1319 47.2345 94.917 47.3772 95.5879 47.6913C96.2588 48.0053 96.787 48.4336 97.1581 49.0045C97.5293 49.5755 97.7291 50.2179 97.7291 50.9316C97.7291 51.2456 97.7006 51.5311 97.6435 51.7738C97.5864 52.0165 97.5007 52.2306 97.4008 52.4162C97.3009 52.6017 97.1724 52.8158 97.0011 53.0442C96.9297 53.1442 96.8869 53.2298 96.8869 53.2869C96.8869 53.4297 97.1296 53.5296 97.6006 53.5724V53.8436C97.101 53.8151 96.2017 53.8151 94.917 53.8436V53.5724C95.331 53.501 95.6736 53.4154 95.9448 53.3297C96.216 53.2441 96.4444 53.1156 96.6443 52.9586C96.9155 52.7302 97.1439 52.4304 97.3009 52.0593C97.4579 51.6882 97.5293 51.317 97.5293 50.9173C97.515 50.4034 97.3437 49.9609 97.0011 49.5755C96.6585 49.1901 96.1732 48.9046 95.5594 48.6905C94.9313 48.4907 94.2176 48.3907 93.3896 48.405C92.4475 48.4193 91.691 48.5335 91.0915 48.7476C90.4919 48.9617 90.0637 49.2758 89.7782 49.6897C89.4927 50.1037 89.3642 50.6318 89.3785 51.2742C89.3928 51.7453 89.5213 52.1449 89.7639 52.4875C89.8638 52.6303 89.9495 52.7159 90.0494 52.7587C90.1351 52.8016 90.2635 52.8158 90.4205 52.8158L91.5482 52.8016C91.8766 52.8016 92.1049 52.7587 92.262 52.7016C92.4047 52.6445 92.5189 52.5304 92.5617 52.3591C92.6188 52.202 92.6474 51.9451 92.6474 51.6025H92.8758C92.8615 51.9879 92.8472 52.5304 92.8615 53.2584C92.8758 53.8008 92.89 54.2147 92.9186 54.4717H92.6902C92.6759 54.2861 92.6331 54.1577 92.5903 54.0863C92.5475 54.0149 92.4475 53.9578 92.3191 53.9293C92.1906 53.9007 91.9765 53.8864 91.6767 53.9007L89.3642 53.9435V53.7151C89.4927 53.658 89.6497 53.6295 89.7925 53.5724Z" fill="#626260"/>
<path id="Vector_9" d="M88.0938 65.72C87.6798 65.5915 87.1945 65.463 86.6378 65.3488C86.8234 64.8492 87.0946 64.007 87.48 62.8079C87.9368 61.3805 88.2651 60.2956 88.4649 59.5676L88.6933 59.639C88.622 59.9102 88.5934 60.1101 88.5934 60.2528C88.6077 60.3955 88.6648 60.4955 88.779 60.5811C88.8932 60.6668 89.093 60.7524 89.3642 60.8381L94.8885 62.5796C95.174 62.6652 95.3738 62.708 95.5166 62.708C95.6593 62.708 95.7735 62.6509 95.8592 62.5367C95.9448 62.4225 96.0304 62.237 96.1304 61.98L96.3588 62.0514C96.1018 62.7794 95.7592 63.85 95.3024 65.2774C94.9599 66.3623 94.7172 67.1474 94.603 67.6185C94.1319 67.4186 93.7037 67.2473 93.304 67.1331C93.0185 67.0475 92.7759 66.9761 92.6046 66.9476L92.6902 66.6906C93.1898 66.7905 93.5752 66.8334 93.8322 66.8334C94.0891 66.8334 94.3032 66.7477 94.4745 66.5764C94.6458 66.4194 94.7886 66.1339 94.917 65.7485L95.2025 64.8207C95.2882 64.5494 95.331 64.3496 95.3167 64.2211C95.3024 64.0927 95.2596 63.9785 95.1454 63.8928C95.0312 63.8072 94.8457 63.7215 94.5602 63.6359L91.9337 62.8079L91.7053 63.5502C91.5911 63.9214 91.6196 64.2069 91.8052 64.4067C91.9908 64.6065 92.1906 64.7493 92.419 64.8492C92.6474 64.9491 92.7901 65.0205 92.8472 65.049L92.7616 65.306C92.4047 65.1632 92.0621 65.0348 91.7195 64.9349L91.1914 64.7778C90.8202 64.6636 90.2778 64.5066 89.5926 64.3496L89.6783 64.0927C89.7354 64.1069 89.9209 64.1355 90.235 64.2069C90.549 64.2639 90.8202 64.2354 91.0344 64.1212C91.2485 64.007 91.3912 63.7929 91.4911 63.4931L91.7195 62.7508L89.0359 61.9087C88.7504 61.823 88.5506 61.7802 88.4078 61.7802C88.2651 61.7802 88.1509 61.8373 88.0795 61.9515C87.9939 62.0657 87.9082 62.2512 87.8226 62.5225L87.5656 63.3361C87.4229 63.8072 87.3658 64.1783 87.4229 64.4495C87.4657 64.735 87.6085 64.9634 87.8511 65.1632C88.0938 65.3488 88.4649 65.5629 88.9645 65.7913L88.8789 66.0483C88.7076 65.9198 88.4364 65.8342 88.0938 65.72Z" fill="#626260"/>
<path id="Vector_10" d="M84.0256 83.2349C84.0826 83.1064 84.0684 82.978 84.0113 82.8495C83.9542 82.721 83.8114 82.564 83.5973 82.3499L79.4006 78.3387C79.1865 78.1389 79.0152 78.0104 78.8867 77.9533C78.7583 77.8962 78.6298 77.8962 78.5013 77.9533C78.3728 78.0104 78.2158 78.1389 78.016 78.3387L77.8447 78.1817C78.1159 77.939 78.4585 77.5822 78.901 77.1397C79.3578 76.6543 79.7004 76.2832 79.9145 76.0405L80.0858 76.1975C79.9002 76.4117 79.786 76.583 79.7289 76.6972C79.6718 76.8256 79.6861 76.9541 79.7432 77.0826C79.8003 77.211 79.943 77.3681 80.1572 77.5822L84.3539 81.5933C84.568 81.7932 84.7393 81.9216 84.8677 81.9787C84.9962 82.0358 85.1247 82.0358 85.2532 81.9787C85.3816 81.9216 85.5387 81.7932 85.7385 81.5933L85.9098 81.7503C85.6671 81.9645 85.3103 82.3213 84.8535 82.8067C84.411 83.2634 84.0827 83.6346 83.8543 83.9058L83.683 83.7488C83.8543 83.5347 83.9685 83.3634 84.0256 83.2349Z" fill="#626260"/>
<path id="Vector_11" d="M72.1349 91.9422C72.2205 91.8138 72.2348 91.6853 72.2063 91.5283C72.1777 91.3713 72.0778 91.1714 71.9208 90.9002L68.3807 84.8906L68.6091 84.7479L76.6885 88.7876L73.5623 83.4774C73.4053 83.2205 73.2768 83.0349 73.1484 82.935C73.0199 82.8351 72.8772 82.7923 72.7201 82.8065C72.5631 82.8208 72.349 82.9065 72.0778 83.0492L71.9493 82.8494C72.2063 82.7352 72.5488 82.5353 72.9914 82.2784C73.391 82.0357 73.6908 81.8501 73.9049 81.6931L74.0191 81.893C73.7907 82.0357 73.6337 82.1784 73.5623 82.3069C73.4767 82.4354 73.4624 82.5639 73.491 82.7209C73.5195 82.8779 73.6194 83.0777 73.7764 83.349L76.6599 88.2451C76.8027 88.5021 76.9311 88.6734 77.0453 88.759C77.1595 88.8447 77.2737 88.8875 77.4165 88.8589C77.5449 88.8304 77.7448 88.759 77.9874 88.6305L78.1016 88.8304C77.8732 88.9446 77.5592 89.1159 77.1452 89.3585C76.8455 89.5298 76.5885 89.7011 76.3744 89.8439L69.594 86.4608L72.1349 90.7717C72.2919 91.0287 72.4204 91.2142 72.5488 91.3142C72.663 91.4141 72.8058 91.4569 72.9771 91.4426C73.1484 91.4283 73.3625 91.3427 73.6337 91.2L73.7479 91.3998C73.491 91.514 73.1484 91.7138 72.7059 91.9708C72.3062 92.2134 72.0064 92.399 71.7923 92.556L71.6781 92.3562C71.8922 92.1992 72.0492 92.0564 72.1349 91.9422Z" fill="#626260"/>
<path id="Vector_12" d="M64.2839 93.8123C64.3838 94.2548 64.5123 94.7401 64.6836 95.254C64.0412 95.3682 62.9706 95.5966 61.4575 95.9106C59.9444 96.239 58.8881 96.4816 58.26 96.6386C58.1887 96.0819 58.1173 95.5966 58.0174 95.1541C57.9317 94.7687 57.8603 94.4546 57.7747 94.2262L58.0316 94.1691C58.2172 94.7544 58.3885 95.1684 58.5455 95.4396C58.7025 95.7108 58.9024 95.8821 59.1593 95.9677C59.4163 96.0534 59.7874 96.0391 60.2585 95.9392L60.8723 95.8107L59.4734 89.3158C59.402 89.0018 59.3306 88.7734 59.2307 88.6449C59.1308 88.5164 59.0166 88.4308 58.8453 88.4165C58.674 88.388 58.417 88.4165 58.0745 88.4736L58.0316 88.2452C58.4313 88.1881 59.0023 88.0739 59.716 87.9169C60.4726 87.7456 61.0436 87.6171 61.4004 87.5172L61.4432 87.7456C61.1007 87.8313 60.8723 87.9169 60.7295 88.0025C60.5868 88.0882 60.5011 88.2167 60.4726 88.3737C60.444 88.5307 60.4583 88.7734 60.5297 89.0874L61.9286 95.5823L62.5424 95.4539C63.0134 95.3539 63.356 95.2112 63.5559 95.0256C63.7557 94.84 63.8699 94.5974 63.8985 94.2976C63.927 93.9978 63.9127 93.5411 63.8414 92.9415L64.0983 92.8844C64.1411 93.1128 64.1982 93.4269 64.2839 93.8123Z" fill="#626260"/>
<path id="Vector_13" d="M45.3416 89.8011C45.3844 89.3586 45.3987 88.859 45.3987 88.3022C45.9268 88.3736 46.8118 88.4593 48.068 88.5735C49.5526 88.7019 50.6802 88.8019 51.4511 88.8447L51.4368 89.0731C51.1513 89.0588 50.9515 89.0731 50.823 89.1159C50.6945 89.1587 50.5946 89.2301 50.5375 89.3586C50.4804 89.487 50.4376 89.7012 50.409 89.9866L49.8951 95.7678C49.8666 96.0533 49.8809 96.2674 49.9094 96.4102C49.938 96.5529 50.0236 96.6528 50.1521 96.7099C50.2806 96.767 50.4804 96.8241 50.7516 96.8527L50.7373 97.0811C49.9808 96.9954 48.8531 96.8812 47.3685 96.7528C46.2266 96.6528 45.4129 96.5958 44.9276 96.5672C45.0275 96.0676 45.0989 95.6108 45.1274 95.1968C45.156 94.8971 45.1703 94.6544 45.156 94.4688L45.4272 94.4974C45.4415 95.0113 45.47 95.3824 45.5414 95.6394C45.5985 95.8963 45.727 96.0819 45.9268 96.2103C46.1124 96.3388 46.4264 96.4245 46.8261 96.453L47.7968 96.5386C48.0823 96.5672 48.2821 96.5529 48.4106 96.5244C48.5391 96.4958 48.639 96.4102 48.6961 96.2817C48.7532 96.1532 48.796 95.9391 48.8246 95.6536L49.0672 92.9129L48.2964 92.8415C47.911 92.813 47.6398 92.8986 47.4827 93.127C47.34 93.3554 47.2258 93.5838 47.183 93.8265C47.1259 94.0692 47.0973 94.2262 47.0831 94.2975L46.8118 94.269C46.8689 93.8836 46.9118 93.5267 46.9546 93.1699L46.9974 92.6132C47.026 92.2135 47.0545 91.671 47.0831 90.9573L47.3543 90.9859C47.3543 91.043 47.3685 91.2285 47.3685 91.5568C47.3828 91.8852 47.4542 92.1421 47.6255 92.3134C47.7825 92.499 48.0252 92.5989 48.3392 92.6274L49.11 92.6988L49.3527 89.901C49.3813 89.6155 49.367 89.4014 49.3384 89.2586C49.3099 89.1302 49.2242 89.0302 49.0958 88.9732C48.9673 88.9161 48.7675 88.8732 48.4962 88.8447L47.6398 88.7733C47.1544 88.7305 46.7833 88.759 46.5121 88.8732C46.2551 88.9731 46.0553 89.173 45.9125 89.4442C45.7698 89.7154 45.6556 90.1294 45.5414 90.6718L45.2702 90.6433C45.2702 90.4292 45.2987 90.1437 45.3416 89.8011Z" fill="#626260"/>
<path id="Vector_14" d="M34.1075 84.5053C34.3216 84.4625 34.5643 84.5053 34.8212 84.6195C35.121 84.748 35.3208 84.9335 35.435 85.1762C35.5492 85.4331 35.5635 85.79 35.4921 86.2611L35.278 87.4316C35.2066 87.8455 35.1638 88.1596 35.1495 88.4023C35.1353 88.6306 35.1924 88.8448 35.2923 89.0303C35.3922 89.2159 35.5778 89.3586 35.849 89.4728L36.8768 89.9011L37.9188 87.4173C38.033 87.1461 38.0901 86.9462 38.1044 86.8035C38.1187 86.6608 38.0616 86.5466 37.9616 86.4466C37.8617 86.3467 37.6904 86.2468 37.4335 86.1326L37.5191 85.9185C37.8474 86.0755 38.2899 86.2753 38.8752 86.518C39.489 86.775 39.9601 86.9605 40.2741 87.0604L40.1885 87.2746C39.9172 87.1746 39.7174 87.1318 39.5889 87.1175C39.4462 87.1175 39.332 87.1604 39.2463 87.2746C39.1464 87.3745 39.0465 87.5601 38.9323 87.8313L36.6912 93.1842C36.577 93.4554 36.5199 93.6553 36.5056 93.798C36.4914 93.9408 36.5485 94.055 36.6484 94.1549C36.7483 94.2548 36.9196 94.3547 37.1765 94.4832L37.0909 94.6973C36.7911 94.5546 36.3629 94.3547 35.7919 94.1121C35.5064 93.9979 35.2066 93.8694 34.8641 93.7267C34.5215 93.5839 34.2931 93.4983 34.1646 93.4412C33.6079 93.1985 33.1654 92.9273 32.8371 92.599C32.5088 92.2707 32.3232 91.9281 32.2375 91.5569C32.1519 91.1858 32.1947 90.8289 32.3517 90.4721C32.4659 90.1866 32.6515 89.9296 32.9084 89.7012C33.1654 89.4728 33.4937 89.3015 33.8934 89.2159C34.2931 89.1303 34.7784 89.1445 35.3066 89.273L35.1781 89.2016C34.8783 89.0161 34.6499 88.8305 34.5072 88.6306C34.3644 88.4451 34.2645 88.231 34.236 88.0026C34.1932 87.7742 34.2074 87.4887 34.2645 87.1461L34.4644 85.9328C34.5072 85.6901 34.5357 85.5045 34.5357 85.3618C34.5357 85.219 34.5215 85.1048 34.4786 85.0192C34.4358 84.9335 34.3644 84.8622 34.2645 84.8336C34.1503 84.7765 34.0361 84.7765 33.9362 84.8051C33.8363 84.8336 33.6935 84.905 33.508 85.0049L33.3938 84.8193C33.6507 84.6623 33.8934 84.5481 34.1075 84.5053ZM34.8212 89.587C34.4786 89.6299 34.2074 89.7583 33.9933 89.9724C33.7792 90.1866 33.5936 90.4721 33.4366 90.8432C33.1939 91.4285 33.1368 91.9423 33.2939 92.3563C33.4509 92.7703 33.8363 93.1128 34.4786 93.3841C34.707 93.484 34.8783 93.5268 35.0211 93.5125C35.1495 93.5125 35.2637 93.4554 35.3637 93.3412C35.4636 93.227 35.5635 93.0415 35.6634 92.7845L36.7768 90.1295L36.0488 89.8297C35.5778 89.6299 35.1638 89.5442 34.8212 89.587Z" fill="#626260"/>
<path id="Vector_15" d="M22.9734 86.4466C23.1018 86.4894 23.2303 86.4609 23.3445 86.3895C23.4587 86.3181 23.6157 86.1611 23.8013 85.9327L27.3842 81.3649C27.5698 81.1365 27.684 80.9509 27.7268 80.8225C27.7696 80.694 27.7553 80.5655 27.684 80.4513C27.6126 80.3371 27.4698 80.1801 27.2557 79.9945L27.3985 79.809C27.6697 80.0516 28.0408 80.3657 28.5404 80.7511C29.0686 81.165 29.4683 81.4648 29.7395 81.6504L29.5968 81.8359C29.3684 81.6647 29.1828 81.5647 29.0543 81.5362C28.9259 81.4934 28.7974 81.5076 28.6832 81.5933C28.569 81.6646 28.412 81.8217 28.2264 82.0501L24.6435 86.6179C24.4579 86.8463 24.3437 87.0319 24.3009 87.1603C24.2581 87.2888 24.2724 87.4173 24.3437 87.5315C24.4151 87.6457 24.5578 87.8027 24.772 87.9883L24.6292 88.1738C24.3865 87.9597 24.0011 87.6457 23.473 87.2174C22.9734 86.832 22.5737 86.5323 22.2882 86.3324L22.4309 86.1469C22.6736 86.3039 22.8449 86.4038 22.9734 86.4466Z" fill="#626260"/>
<path id="Vector_16" d="M13.752 76.2832C13.6949 75.6409 13.8377 74.9985 14.166 74.3847C14.5086 73.7566 15.0224 73.1999 15.7362 72.6717C16.4356 72.1721 17.1351 71.8438 17.8631 71.7154C18.5911 71.5869 19.262 71.6297 19.8901 71.8724C20.5181 72.115 21.0463 72.529 21.4603 73.1143C21.9028 73.7138 22.1454 74.3419 22.2025 74.9842C22.2596 75.6266 22.1169 76.2689 21.7886 76.8827C21.446 77.5108 20.9321 78.0675 20.2184 78.5957C19.5189 79.0953 18.8195 79.4236 18.0915 79.5521C17.3777 79.6805 16.6926 79.6377 16.0645 79.3951C15.4364 79.1524 14.9083 78.7384 14.4943 78.1674C14.0518 77.5536 13.8091 76.9256 13.752 76.2832ZM15.8932 78.8241C16.3928 78.924 16.9638 78.8812 17.5919 78.6813C18.2199 78.4815 18.848 78.1532 19.5047 77.6678C20.1613 77.1968 20.6752 76.6829 21.032 76.1405C21.4032 75.598 21.603 75.0556 21.6316 74.5417C21.6744 74.0278 21.5459 73.571 21.2747 73.1856C20.9749 72.7859 20.5895 72.529 20.0756 72.4291C19.576 72.3292 19.005 72.372 18.377 72.5718C17.7489 72.7717 17.1208 73.1 16.4642 73.571C15.8075 74.0421 15.2937 74.556 14.9368 75.1127C14.5657 75.6551 14.3658 76.1833 14.323 76.7114C14.2802 77.2253 14.4086 77.6821 14.6799 78.0675C14.9796 78.4672 15.3793 78.7242 15.8932 78.8241Z" fill="#626260"/>
<path id="Vector_17" d="M14.8512 59.0966C15.0224 59.2251 15.1509 59.4392 15.2366 59.7247C15.3365 60.0245 15.3222 60.31 15.208 60.5526C15.0938 60.8096 14.8226 61.0522 14.4086 61.2949L13.3666 61.8801C13.0097 62.0943 12.7385 62.2656 12.5529 62.4083C12.3674 62.5511 12.2389 62.7224 12.1675 62.9222C12.0962 63.122 12.0962 63.3504 12.1818 63.6359L12.5101 64.7065L15.0795 63.9071C15.365 63.8215 15.5506 63.7358 15.6648 63.6502C15.779 63.5645 15.8361 63.4504 15.8504 63.3219C15.8646 63.1934 15.8218 62.9793 15.7504 62.7081L15.9788 62.6367C16.0645 62.9793 16.193 63.4646 16.3928 64.0642C16.5926 64.7065 16.7497 65.1776 16.8639 65.4773L16.6355 65.5487C16.5355 65.2775 16.4499 65.0919 16.3643 64.992C16.2786 64.8921 16.1644 64.8207 16.0217 64.8207C15.8789 64.8207 15.6648 64.8493 15.3936 64.9492L9.85506 66.6621C9.56957 66.7478 9.384 66.8334 9.26981 66.9191C9.15561 67.0047 9.09851 67.1189 9.08424 67.2474C9.06996 67.3901 9.11279 67.59 9.18416 67.8612L8.95577 67.9326C8.88439 67.6185 8.75592 67.1617 8.57035 66.5622C8.48471 66.2767 8.37051 65.9484 8.25631 65.6058C8.14212 65.2632 8.05647 65.0205 8.01365 64.8921C7.82808 64.3068 7.77098 63.7929 7.8138 63.3362C7.85663 62.8794 7.99937 62.5082 8.22777 62.2085C8.45616 61.9087 8.75592 61.7089 9.12706 61.5947C9.41255 61.509 9.72659 61.4805 10.0692 61.5233C10.4118 61.5661 10.7401 61.7089 11.0827 61.9658C11.4253 62.2227 11.7108 62.5939 11.9534 63.0935L11.9391 62.9507C11.8963 62.5939 11.882 62.3084 11.9391 62.0657C11.9962 61.8231 12.0962 61.6232 12.2389 61.4519C12.3959 61.2806 12.6243 61.0951 12.9241 60.9238L13.9804 60.2957C14.1945 60.1815 14.3658 60.0673 14.4657 59.9816C14.5657 59.896 14.6513 59.8103 14.6941 59.7247C14.737 59.639 14.737 59.5391 14.7084 59.4392C14.6656 59.3107 14.6085 59.2251 14.5228 59.168C14.4372 59.1109 14.2944 59.0395 14.0946 58.9681L14.166 58.754C14.4515 58.854 14.6941 58.9681 14.8512 59.0966ZM11.4395 62.9222C11.1969 62.6938 10.9114 62.5653 10.6116 62.5368C10.3118 62.5082 9.96926 62.5511 9.58385 62.6795C8.97004 62.8651 8.55608 63.1649 8.32769 63.5503C8.09929 63.9357 8.09929 64.4638 8.29914 65.1062C8.37051 65.3346 8.45616 65.5059 8.54181 65.6058C8.62745 65.7057 8.75592 65.7628 8.89867 65.7628C9.04141 65.7628 9.25553 65.72 9.51247 65.6486L12.2532 64.7922L12.0248 64.0356C11.882 63.5217 11.6822 63.1506 11.4395 62.9222Z" fill="#626260"/>
<path id="Vector_18" d="M13.752 45.55C14.2945 45.3074 14.6228 44.8506 14.7655 44.1654C14.8083 43.9085 14.8083 43.6515 14.737 43.4089C14.6656 43.1662 14.5371 42.9521 14.3373 42.7665C14.1374 42.5809 13.8662 42.4525 13.5094 42.3954C13.2096 42.3383 12.9384 42.3668 12.6814 42.4667C12.4245 42.5667 12.1676 42.7237 11.9249 42.9378C11.6822 43.1519 11.3967 43.4374 11.0827 43.7943C10.7258 44.194 10.4118 44.5223 10.1406 44.7507C9.86935 44.9933 9.56959 45.1646 9.24127 45.2931C8.91296 45.4216 8.54182 45.4358 8.12786 45.3645C7.69962 45.2788 7.34276 45.1218 7.08582 44.8649C6.82888 44.6079 6.64331 44.3082 6.55766 43.9513C6.47201 43.5944 6.47201 43.2233 6.54339 42.8236C6.58621 42.5809 6.64331 42.3954 6.71468 42.2241C6.78605 42.0528 6.85743 41.9243 6.94307 41.8244C7.02872 41.7245 7.11437 41.6103 7.22856 41.4961C7.37131 41.339 7.44268 41.2249 7.47123 41.1392C7.48551 41.0678 7.45696 41.0107 7.38558 40.9536C7.31421 40.8965 7.18574 40.8537 7.01445 40.7966L7.05727 40.5397C7.49978 40.6539 8.27061 40.8252 9.39829 41.0393L9.35547 41.2962C8.95578 41.2534 8.58465 41.2677 8.21351 41.3533C7.85664 41.4247 7.5426 41.5817 7.28566 41.8244C7.02872 42.0528 6.85743 42.3811 6.78605 42.7808C6.72896 43.052 6.74323 43.2947 6.8146 43.5373C6.88598 43.78 7.01445 43.9656 7.18574 44.1226C7.37131 44.2796 7.58543 44.3795 7.84237 44.4366C8.25633 44.508 8.61319 44.4509 8.91296 44.2511C9.21273 44.0512 9.49822 43.7943 9.76943 43.4945C10.0406 43.1947 10.2119 42.9949 10.3119 42.895C10.7116 42.4667 11.0399 42.1384 11.3111 41.8958C11.5823 41.6531 11.8821 41.4818 12.2104 41.3676C12.5387 41.2534 12.8956 41.2391 13.281 41.3105C13.752 41.3961 14.1374 41.5817 14.4229 41.8529C14.7084 42.1384 14.894 42.4667 14.9939 42.8664C15.0938 43.2661 15.0938 43.6943 15.0082 44.1511C14.9368 44.5223 14.8512 44.8078 14.7227 45.0362C14.6085 45.2645 14.4515 45.4644 14.2802 45.65C14.1374 45.807 14.0661 45.9212 14.0375 46.0068C14.0232 46.0782 14.0518 46.1353 14.1232 46.1924C14.1945 46.2495 14.323 46.3066 14.4943 46.3494L14.4515 46.6064C14.0375 46.4922 13.1239 46.3066 11.7108 46.0496L11.7536 45.7927C12.553 45.8641 13.2096 45.7927 13.752 45.55Z" fill="#626260"/>
<path id="Vector_19" d="M10.9257 33.5165C10.526 33.3024 10.0692 33.1026 9.55531 32.9027C9.86935 32.346 10.3975 31.3754 11.1112 29.9907C11.825 28.6204 12.3246 27.6497 12.5958 27.0645C13.0668 27.3642 13.4951 27.6212 13.8805 27.821C14.2231 28.0066 14.5228 28.135 14.7512 28.235L14.6228 28.4776C14.0518 28.2492 13.6235 28.1065 13.3238 28.0637C13.024 28.0066 12.7528 28.0637 12.5244 28.2064C12.296 28.3492 12.0676 28.6347 11.8535 29.0629L11.568 29.6339L17.4634 32.7029C17.7489 32.8599 17.9773 32.9313 18.1343 32.9456C18.2913 32.9598 18.4341 32.917 18.5625 32.8028C18.691 32.6886 18.8338 32.4745 19.005 32.1747L19.2192 32.2889C19.005 32.6458 18.7338 33.1454 18.3912 33.802C18.0344 34.4872 17.7774 35.0154 17.6204 35.3437L17.4063 35.2295C17.549 34.9154 17.649 34.6728 17.6632 34.5158C17.6918 34.3445 17.649 34.2017 17.5348 34.0733C17.4206 33.9448 17.235 33.8163 16.9495 33.6593L11.0541 30.576L10.7544 31.1327C10.526 31.5609 10.4261 31.9035 10.4403 32.1747C10.4546 32.446 10.5688 32.6886 10.7829 32.9027C10.997 33.1169 11.3539 33.4023 11.8678 33.7307L11.7393 33.9733C11.5537 33.8591 11.2682 33.7021 10.9257 33.5165Z" fill="#626260"/>
<path id="Vector_20" d="M21.0035 17.1153C21.2462 16.8726 21.446 16.6442 21.5887 16.4729L21.76 16.6442C21.6744 16.7727 21.6316 16.9582 21.6458 17.1724C21.6601 17.3865 21.7172 17.6862 21.8314 18.0431L23.1304 21.9115L24.6435 23.4103C24.8576 23.6102 25.0146 23.7529 25.1431 23.81C25.2716 23.8671 25.4 23.8671 25.5285 23.81C25.657 23.7529 25.814 23.6244 26.0281 23.4389L26.1994 23.6102C25.9282 23.8528 25.5713 24.1954 25.1288 24.6379C24.6578 25.109 24.3152 25.4801 24.1011 25.7228L23.9298 25.5515C24.1153 25.3374 24.2438 25.1804 24.3009 25.0519C24.358 24.9234 24.358 24.795 24.2866 24.6665C24.2295 24.538 24.0868 24.3667 23.8869 24.1669L22.6308 22.925L17.8631 21.5261C17.5776 21.4404 17.3635 21.4119 17.2207 21.4262C17.078 21.4404 16.9781 21.4833 16.9067 21.5546L16.7354 21.3833C16.9638 21.1835 17.2207 20.9551 17.4777 20.6839C18.0058 20.1415 18.3912 19.756 18.6054 19.4991L18.7767 19.6704C18.3912 20.0558 18.3056 20.3556 18.5197 20.5697C18.6054 20.6553 18.7196 20.7124 18.8909 20.7695L22.902 22.0114L21.8457 18.8567C21.6887 18.4 21.5316 18.0859 21.3603 17.9289C21.2033 17.7719 21.032 17.7291 20.8465 17.7862C20.6609 17.8433 20.4468 17.986 20.1898 18.2287L20.0185 18.0574C20.3611 17.7433 20.6752 17.4293 21.0035 17.1153Z" fill="#626260"/>
<path id="Vector_21" d="M29.6396 11.3626C29.5539 11.4625 29.5111 11.591 29.5397 11.7337C29.5682 11.8765 29.6396 12.0763 29.7823 12.3333L32.5373 17.4436C32.6801 17.7005 32.7943 17.8718 32.9085 17.9717C33.0084 18.0716 33.1369 18.1002 33.2653 18.0859C33.3938 18.0716 33.5936 17.986 33.8363 17.8575L34.5929 17.4436C35.0211 17.2152 35.3209 16.9725 35.4779 16.7298C35.6349 16.4872 35.692 16.2159 35.6492 15.8876C35.6063 15.5593 35.4779 15.1454 35.2495 14.6029L35.4922 14.4745C35.5921 14.7028 35.7348 14.9883 35.9204 15.3309C36.1345 15.7163 36.3914 16.1446 36.7055 16.6156C36.2344 16.844 35.4351 17.258 34.3359 17.8575C33.0227 18.5712 32.0234 19.1137 31.3668 19.4991L31.2526 19.2992C31.4953 19.1565 31.6666 19.028 31.7522 18.9281C31.8379 18.8282 31.8807 18.6997 31.8521 18.557C31.8236 18.4142 31.7522 18.2144 31.6095 17.9574L28.8259 12.8472C28.6832 12.5902 28.569 12.4189 28.4548 12.319C28.3549 12.2191 28.2264 12.1905 28.0979 12.2048C27.9552 12.2191 27.7696 12.2905 27.5127 12.4189L27.4128 12.2048C27.7125 12.0763 28.155 11.8479 28.7403 11.5196C29.297 11.2199 29.7252 10.9772 30.025 10.7916L30.1392 10.9915C29.8965 11.1342 29.7395 11.2627 29.6396 11.3626Z" fill="#626260"/>
<path id="Vector_22" d="M47.026 12.2761C47.1116 12.7043 47.2401 13.1897 47.3971 13.7321C46.8689 13.8178 45.9982 13.9748 44.7706 14.2174C43.3003 14.5029 42.2012 14.7313 41.4446 14.9026L41.4018 14.6742C41.673 14.6029 41.8729 14.5458 41.9871 14.4601C42.1012 14.3887 42.1726 14.2745 42.1869 14.1461C42.2012 14.0033 42.1869 13.7892 42.1298 13.5037L41.0164 7.80817C40.9593 7.52268 40.9022 7.32284 40.8165 7.19437C40.7309 7.0659 40.6452 6.99452 40.5025 6.98025C40.374 6.9517 40.1599 6.96597 39.8887 7.0088L39.8459 6.78041C40.6024 6.65194 41.7158 6.45209 43.1718 6.1666C44.2995 5.93821 45.0989 5.78119 45.5557 5.66699C45.5985 6.18088 45.6699 6.63766 45.7413 7.03735C45.7984 7.33711 45.8555 7.56551 45.9125 7.7368L45.6556 7.7939C45.4986 7.30856 45.3558 6.9517 45.2274 6.72331C45.0989 6.49492 44.9133 6.35217 44.6992 6.2808C44.4708 6.20942 44.1711 6.20942 43.7571 6.29507L42.8007 6.48064C42.5295 6.53774 42.3296 6.59484 42.2154 6.66621C42.1012 6.73758 42.0299 6.8375 42.0013 6.98025C41.9871 7.12299 42.0013 7.33711 42.0584 7.6226L42.5866 10.3348L43.3431 10.1777C43.7285 10.1064 43.9569 9.93508 44.0426 9.67814C44.1282 9.4212 44.1568 9.17853 44.1425 8.93586C44.1282 8.69319 44.114 8.53617 44.114 8.4648L44.3709 8.4077C44.4137 8.79312 44.4708 9.14998 44.5422 9.49257L44.6564 10.035C44.7278 10.4204 44.8562 10.9628 45.0418 11.648L44.7849 11.7051C44.7706 11.648 44.7135 11.4767 44.6136 11.1627C44.5136 10.8486 44.3709 10.6345 44.1568 10.5061C43.9427 10.3776 43.7 10.349 43.386 10.4061L42.6294 10.5489L43.1718 13.3039C43.2289 13.5894 43.286 13.7892 43.3574 13.9177C43.4288 14.0319 43.5287 14.1032 43.6714 14.1318C43.7999 14.1461 44.014 14.1318 44.2853 14.0747L45.1274 13.9034C45.5985 13.8035 45.9554 13.675 46.1838 13.5037C46.4122 13.3324 46.5406 13.0898 46.5977 12.79C46.6548 12.4902 46.6548 12.062 46.612 11.5053L46.8689 11.4482C46.9118 11.6623 46.9546 11.9335 47.026 12.2761Z" fill="#626260"/>
</g>
<g id="Group_3">
<path id="Vector_23" d="M37.4049 66.7906C36.7483 65.9056 36.1773 64.9349 35.6777 63.8643C35.1781 62.7937 34.7784 61.7088 34.4786 60.5954C33.822 55.6993 33.8077 50.9458 34.4215 46.3352C35.0353 41.7245 36.0345 37.1852 37.4049 32.703C37.6333 32.2034 38.1329 31.9607 38.9037 31.9607C39.6746 31.9607 40.4311 32.132 41.2019 32.4746C41.9728 32.8172 42.6008 33.274 43.1004 33.8449C43.6 34.4159 43.7142 35.0155 43.443 35.6293C43.0148 36.5428 42.6008 37.7847 42.1869 39.3264C41.7729 40.8823 41.3589 42.5952 40.9878 44.4652C40.6024 46.3352 40.2741 48.3051 39.9886 50.3463C39.7031 52.3876 39.489 54.3575 39.3605 56.2274C39.232 58.0974 39.2035 59.7961 39.2749 61.3092C39.3462 62.8223 39.5746 64.0213 39.96 64.8921C41.7586 62.4797 43.4002 59.9816 44.899 57.3979C46.3979 54.8142 47.7968 52.202 49.11 49.5327C50.4233 46.8776 51.6794 44.194 52.8642 41.4675C54.049 38.7554 55.2195 36.0718 56.3615 33.431C56.9325 32.0892 57.5034 30.676 58.0602 29.1914C58.6169 27.6926 59.3449 26.4222 60.2727 25.3516C60.6581 25.009 60.9579 24.8948 61.1577 25.009C61.3718 25.1232 61.5146 25.3373 61.586 25.6656C61.6573 25.994 61.7002 26.3365 61.7002 26.6934C61.7002 27.0503 61.7002 27.3358 61.7002 27.5213C61.4289 29.2771 61.2006 31.0186 61.015 32.7458C60.8294 34.473 60.4155 36.1289 59.8159 37.7419C58.8167 40.2685 57.8032 42.7665 56.7469 45.2646C55.6906 47.7483 54.5629 50.2036 53.3638 52.616C52.1648 55.0284 50.8515 57.3694 49.4669 59.639C48.068 61.923 46.5549 64.0927 44.899 66.1482C43.6 67.7898 42.3011 68.6605 41.0306 68.7605C39.7031 68.8747 38.5183 68.2038 37.4049 66.7906Z" fill="#626260" stroke="white" stroke-miterlimit="10"/>
<path id="Vector_24" d="M61.0435 60.3099C60.2727 59.2393 59.5162 58.1544 58.7739 57.041C58.0316 55.9276 57.6605 54.7143 57.6605 53.3725C57.6605 51.8879 58.0887 50.4747 58.9452 49.1472C59.8016 47.834 60.7866 46.7634 61.9 45.964C62.3568 45.6642 62.8278 45.4073 63.2989 45.2217C63.77 45.0361 64.2838 45.0504 64.8263 45.2788C65.0547 45.393 65.2973 45.4787 65.54 45.5358C65.7827 45.5929 66.0111 45.6642 66.1966 45.7356C66.3822 45.807 66.5963 45.9212 66.8247 46.0782C67.0531 46.2352 67.1673 46.4351 67.1673 46.7063C67.1673 47.7769 67.1959 48.6476 67.2529 49.3185C67.31 49.9894 67.3957 50.5604 67.5099 51.0457C67.6241 51.5311 67.7383 51.945 67.8525 52.3019C67.9667 52.673 68.0809 53.0584 68.1951 53.4724C68.2664 53.8578 68.2522 54.1861 68.138 54.4431C68.0238 54.7143 67.7383 54.7428 67.2815 54.5573C66.4393 54.2575 65.8112 53.6437 65.4115 52.7158C65.0118 51.788 64.7121 50.9601 64.5265 50.1893C64.4837 50.0322 64.398 49.7753 64.241 49.3899C64.084 49.0045 63.9984 48.7333 63.9555 48.5905C63.6558 48.5191 63.2846 48.6191 62.8707 48.9045C62.4567 49.19 62.0713 49.5897 61.7573 50.0751C61.4289 50.5747 61.2148 51.1456 61.1292 51.8023C61.0293 52.4589 61.1577 53.1013 61.5003 53.7579C61.6573 53.9863 61.8714 54.2718 62.1569 54.5858C62.4424 54.9141 62.7279 55.2424 63.0134 55.585C63.2989 55.9276 63.5844 56.2702 63.8699 56.5842C64.1554 56.8983 64.398 57.1695 64.5836 57.3551C64.812 57.5835 64.969 57.7119 65.0404 57.7262C65.1118 57.7405 65.3116 57.6977 65.6114 57.5835C65.9968 57.3979 66.582 57.141 67.3671 56.8412C68.1522 56.5414 68.9802 56.2274 69.8366 55.9276C70.6931 55.6279 71.521 55.3709 72.3061 55.1568C73.0912 54.9427 73.6908 54.8427 74.119 54.8427C74.3902 54.8427 74.5758 54.9427 74.69 55.1282C74.8042 55.2424 74.7899 55.3995 74.6329 55.585C74.4759 55.7706 74.276 55.9704 74.0334 56.156C73.7907 56.3416 73.5195 56.5129 73.2625 56.6699C72.9913 56.8269 72.82 56.9126 72.7486 56.9554C72.092 57.3408 71.2784 57.769 70.2792 58.2544C69.2799 58.7254 68.4235 59.1965 67.6955 59.6533C67.6241 59.7246 67.4813 59.8103 67.2672 59.8817C67.0531 59.953 66.8961 60.0387 66.7819 60.1101C67.2387 61.1378 67.567 62.0371 67.7526 62.7794C67.9381 63.5217 68.0095 64.2354 67.9524 64.9348C67.8953 65.62 67.7526 66.3195 67.5242 67.0332C67.2958 67.7469 66.9817 68.5606 66.6106 69.4741C66.0682 70.3592 65.5257 71.2014 64.969 72.0007C64.4123 72.8001 63.7985 73.5281 63.0991 74.1847C62.4139 74.8414 61.6573 75.3553 60.858 75.7264C60.0586 76.1118 59.1736 76.2974 58.2172 76.2974C57.6747 76.2974 57.1609 76.226 56.6612 76.0975C56.1616 75.9691 55.7477 75.6836 55.4051 75.2696C54.5201 74.3132 54.0347 73.2712 53.9205 72.1435C53.8063 71.0158 53.9063 69.9024 54.206 68.789C54.4344 68.1038 54.7199 67.4757 55.0625 66.8905C55.9047 65.4345 56.8325 64.2068 57.846 63.1934C58.8738 62.1941 59.9301 61.2235 61.0435 60.3099ZM62.9991 62.8936C62.5709 63.3218 61.9999 63.9214 61.2719 64.7065C60.5439 65.4916 59.873 66.348 59.2307 67.2616C58.6026 68.1752 58.0887 69.0887 57.689 69.988C57.2893 70.8873 57.1894 71.6582 57.375 72.3148C58.1458 71.9722 58.9309 71.4012 59.7303 70.6161C60.5296 69.831 61.2434 68.9745 61.8572 68.0324C62.471 67.0903 62.8992 66.1625 63.1419 65.2489C63.3846 64.321 63.3417 63.5359 62.9991 62.8936Z" fill="#626260" stroke="white" stroke-miterlimit="10"/>
</g>
<g id="Group_4">
<path id="Vector_25" d="M51.7365 83.5488C33.8791 83.5488 19.3476 69.0174 19.3476 51.1599C19.3476 33.3025 33.8791 18.771 51.7365 18.771C69.594 18.771 84.1254 33.3025 84.1254 51.1599C84.1254 69.0174 69.594 83.5488 51.7365 83.5488ZM51.7365 20.1984C34.6642 20.1984 20.7751 34.0876 20.7751 51.1599C20.7751 68.2323 34.6642 82.1214 51.7365 82.1214C68.8089 82.1214 82.698 68.2323 82.698 51.1599C82.698 34.0876 68.8089 20.1984 51.7365 20.1984Z" fill="#626260"/>
</g>
</g>
</svg>
