<svg width="165" height="44" viewBox="0 0 165 44" fill="none" xmlns="http://www.w3.org/2000/svg">
<g id="03">
<g id="Group">
<path id="Vector" d="M35.6936 43.548H8.87536C4.46821 43.548 0.896484 39.9763 0.896484 35.5691V8.75086C0.896484 4.34371 4.46821 0.771973 8.87536 0.771973H35.6936C40.1008 0.771973 43.6725 4.34371 43.6725 8.75086V35.5691C43.6725 39.9763 40.1008 43.548 35.6936 43.548Z" fill="#626260"/>
</g>
<g id="Group_2">
<path id="Vector_2" d="M29.9909 22.5535C30.7537 23.51 31.1412 24.6239 31.1412 25.8831C31.1412 27.7356 30.5237 29.1885 29.2887 30.2176C28.0538 31.2467 26.286 31.7795 23.9856 31.7795H13.9363V10.1675H23.7435C25.947 10.1675 27.6421 10.6518 28.8407 11.6083C30.0394 12.5648 30.6448 13.9329 30.6448 15.7006C30.6448 17.0083 30.2937 18.0858 29.6035 18.9576C28.9134 19.8293 28.0053 20.3863 26.8793 20.6526C28.1991 20.9674 29.2282 21.597 29.9909 22.5535ZM19.1547 19.006H22.5811C24.3973 19.006 25.3053 18.2311 25.3053 16.6814C25.3053 15.1316 24.3731 14.3567 22.5206 14.3567H19.1547V19.006ZM25.7896 25.1567C25.7896 24.3818 25.5354 23.7764 25.0269 23.3405C24.5184 22.9046 23.7919 22.6867 22.8596 22.6867H19.1668V27.5418H22.8959C24.821 27.5297 25.7896 26.7427 25.7896 25.1567Z" fill="white"/>
</g>
<g id="Group_3">
<path id="Vector_3" d="M68.4567 31.7795L63.7831 23.619H62.5966V31.7795H57.3661V10.1675H66.2894C67.9966 10.1675 69.4495 10.4581 70.6239 11.0513C71.8105 11.6446 72.6943 12.4558 73.2876 13.485C73.8809 14.5141 74.1715 15.6885 74.1715 17.0204C74.1715 18.5943 73.7356 19.9262 72.8759 21.028C72.0042 22.1298 70.7571 22.8804 69.0984 23.2921L74.232 31.7916H68.4567V31.7795ZM62.5966 20.0473H65.8293C66.8706 20.0473 67.6334 19.8172 68.1177 19.3571C68.602 18.897 68.8562 18.219 68.8562 17.3231C68.8562 16.4634 68.602 15.7975 68.1056 15.3011C67.6091 14.8168 66.8464 14.5625 65.8293 14.5625H62.5966V20.0473Z" fill="#626260"/>
<path id="Vector_4" d="M97.8296 27.8446H89.7297L88.3857 31.7916H82.8889L90.8072 10.337H96.8247L104.743 31.7916H99.1857L97.8296 27.8446ZM96.4857 23.8612L93.7978 15.9186L91.0736 23.8612H96.4857Z" fill="#626260"/>
<path id="Vector_5" d="M133.595 31.7795H128.365L119.623 18.5096V31.7795H114.393V10.1675H119.623L128.365 23.5584V10.1675H133.595V31.7795Z" fill="#626260"/>
<path id="Vector_6" d="M162.92 26.5732C162.012 28.2077 160.704 29.4911 159.009 30.4113C157.302 31.3315 155.304 31.7916 153.004 31.7916H144.843V10.1796H153.004C155.328 10.1796 157.338 10.6275 159.021 11.5235C160.716 12.4195 162.012 13.6786 162.92 15.3132C163.828 16.9477 164.276 18.8123 164.276 20.9432C164.276 23.0499 163.816 24.9266 162.92 26.5732ZM157.29 25.4835C158.416 24.4059 158.985 22.8804 158.985 20.9311C158.985 18.9697 158.416 17.4562 157.29 16.3786C156.164 15.3011 154.578 14.7562 152.532 14.7562H150.062V27.1059H152.532C154.578 27.1059 156.164 26.5732 157.29 25.4835Z" fill="#626260"/>
</g>
</g>
</svg>
