<svg width="145" height="45" viewBox="0 0 145 45" fill="none" xmlns="http://www.w3.org/2000/svg">
<g id="04">
<g id="Group">
<path id="Vector" d="M20.5172 8.95741L21.5878 8.72902C21.859 8.72902 22.0874 8.78612 22.2444 8.90032C22.4014 9.01451 22.4871 9.12871 22.4871 9.22863C22.4871 9.32855 22.4585 9.48557 22.4157 9.67114C22.3729 9.85671 21.9732 11.7695 21.2309 15.381C20.4887 18.9924 19.9462 21.6903 19.6036 23.4603C21.2595 21.205 23.2008 18.4357 25.4134 15.1383C27.6259 11.8409 28.9249 9.65687 29.2961 8.572C29.4102 8.22941 29.5673 7.97247 29.7528 7.7869C29.9384 7.60133 30.1097 7.48714 30.2524 7.45859C30.3952 7.43004 30.6236 7.40149 30.9233 7.40149C31.2231 7.40149 31.58 7.47286 31.9939 7.60133C32.4079 7.72981 32.622 7.94392 32.622 8.25796C32.622 8.82894 31.7655 10.4991 30.0669 13.2398C28.3682 15.9805 26.4126 18.8925 24.2143 21.9758C22.016 25.0591 20.1889 27.5 18.7186 29.2986C18.4617 29.6127 18.1334 29.784 17.7622 29.784C17.3911 29.784 16.9914 29.7126 16.5774 29.5841C16.1635 29.4556 15.9494 29.2273 15.9494 28.8847C15.9494 27.8141 16.8915 22.6467 18.7757 13.4111C17.1627 15.4952 15.2071 18.4072 12.9089 22.1328C10.5107 25.9869 9.15468 28.3851 8.84064 29.2986C8.66935 29.8553 8.46951 30.1836 8.24111 30.2693C8.08409 30.3407 7.91279 30.3692 7.7415 30.3692L6.58526 30.4977C6.35687 30.4977 6.15702 30.4406 5.95718 30.3121C5.77161 30.1836 5.67169 30.0552 5.67169 29.9124C5.67169 29.527 6.21413 28.3565 7.28472 26.4152C8.35531 24.4738 9.62574 22.3612 11.0675 20.0773C12.5092 17.7934 14.008 15.5808 15.5782 13.4253C17.1484 11.2699 18.3618 9.81389 19.2182 9.08588C19.3895 8.92886 19.5894 8.85749 19.8178 8.85749L20.5172 8.95741Z" fill="#626260"/>
<path id="Vector_2" d="M37.6752 18.6357C38.4175 18.6357 38.7886 18.8926 38.7886 19.3922C38.7886 19.6635 38.7315 19.8633 38.603 19.9918C38.4746 20.1202 38.2034 20.5342 37.7894 21.2622C37.3754 21.9759 36.9186 22.8895 36.419 24.0172C35.9194 25.1306 35.5911 26.087 35.4484 26.8721C35.4198 26.972 35.4056 27.1005 35.4056 27.2861C35.4056 27.8285 35.5483 28.0854 35.8481 28.0854C36.1478 28.0854 36.4904 27.9427 36.8901 27.6715C37.2898 27.386 37.6466 27.1005 37.9607 26.7722C38.2747 26.4581 38.5745 26.1298 38.8743 25.8015C39.174 25.4732 39.3453 25.2734 39.4024 25.2305C39.4595 25.1877 39.5452 25.1592 39.6594 25.1592C39.8449 25.1592 39.9591 25.3019 40.002 25.5874C40.0448 25.8729 40.059 26.1584 40.059 26.4724C40.059 26.7865 40.0305 26.9863 39.9734 27.1005C39.6879 27.6572 39.0741 28.3281 38.1034 29.1132C37.147 29.8983 36.262 30.2837 35.4769 30.2837C34.6918 30.2837 34.1066 30.041 33.7497 29.57C33.3928 29.0989 33.193 28.5565 33.193 27.9855C33.193 27.4003 33.2929 26.9007 33.4928 26.4581C32.6791 27.5145 31.7513 28.3995 30.7092 29.1418C29.6529 29.8698 28.8107 30.2409 28.1398 30.2409C27.4689 30.2409 26.9408 30.041 26.5125 29.6414C25.9701 29.1418 25.7131 28.4566 25.7131 27.5716C25.7131 26.6865 25.913 25.8015 26.3127 24.9022C26.7123 24.0172 27.2262 23.1893 27.8686 22.4613C28.511 21.719 29.2247 21.0481 29.9955 20.4486C31.6085 19.1781 33.1073 18.55 34.4777 18.55C35.0059 18.55 35.4341 18.6357 35.7624 18.807C36.0907 18.9783 36.3049 19.2067 36.3905 19.4636C36.6189 19.1068 36.8187 18.8926 36.99 18.7927C37.1185 18.6785 37.3612 18.6357 37.6752 18.6357ZM35.7339 20.263C34.0637 20.263 32.3365 21.1908 30.5522 23.0465C29.9241 23.7174 29.3389 24.5025 28.7964 25.4304C28.254 26.3582 27.9971 26.9863 27.9971 27.3289C27.9971 27.6715 28.097 27.8428 28.2968 27.8428C28.5681 27.8428 29.3246 27.3003 30.5808 26.2298C31.8369 25.1592 32.6648 24.3598 33.0645 23.8459C33.5213 23.2749 34.4063 22.0759 35.7339 20.263Z" fill="#626260"/>
<path id="Vector_3" d="M48.7808 10.8987L49.3803 11.0414C49.466 11.0414 49.5516 11.0843 49.6087 11.1699C49.6801 11.2555 49.7086 11.3412 49.7086 11.4126C49.7086 11.4839 49.6087 11.6981 49.3946 12.0406C49.1805 12.3832 48.9521 12.7686 48.6666 13.1969C48.3811 13.6251 48.2384 13.8678 48.2241 13.9106C48.9806 13.8535 49.5231 13.825 49.8371 13.825C50.1511 13.825 50.3653 13.8535 50.4937 13.8963C50.6079 13.9392 50.7507 14.0676 50.8934 14.2675C51.0504 14.4673 51.1789 14.6243 51.3074 14.7243C51.4359 14.8242 51.493 14.9812 51.493 15.181C51.493 15.3809 51.3645 15.5665 51.1218 15.6949C50.8791 15.8377 50.6079 15.9233 50.3224 15.9519C48.0528 16.1803 46.8109 16.2945 46.5825 16.3087C45.7974 17.5221 44.684 19.4063 43.2708 21.9614C41.8576 24.5166 41.1011 26.1296 41.0154 26.772C40.9726 27.0717 40.9583 27.3001 40.9583 27.4857C40.9583 27.8711 41.1582 28.0567 41.5579 28.0567C41.9576 28.0567 42.4001 27.8997 42.8854 27.5999C43.3707 27.2859 43.8275 26.9575 44.2272 26.6007C45.3263 25.63 45.9116 25.1304 45.983 25.1304C46.2399 25.1304 46.3684 25.5729 46.3684 26.4437C46.3684 26.9147 46.1543 27.3429 45.7118 27.7284C44.7268 28.5706 43.8989 29.2129 43.228 29.6411C42.5571 30.0694 41.8862 30.2835 41.201 30.2835C41.0583 30.2835 40.9155 30.2692 40.7871 30.2407C40.002 30.0979 39.431 29.8124 39.0741 29.3842C38.703 28.956 38.5317 28.385 38.5317 27.6713C38.5317 26.9575 38.7458 26.0725 39.174 25.0447C39.6023 24.017 40.1304 22.9178 40.7728 21.7616C41.8291 19.8631 42.8854 18.093 43.9274 16.4372L43.3707 16.5086C42.2431 16.637 41.5864 16.6941 41.4009 16.6941H41.2724C40.9869 16.6941 40.7157 16.637 40.4587 16.5228C40.2018 16.4087 40.059 16.2659 40.059 16.1089C40.059 15.9376 40.1304 15.7806 40.2732 15.6236C40.4159 15.4665 40.5016 15.3381 40.5301 15.2524C40.6015 15.0383 40.8584 14.7956 41.3009 14.5387C41.7434 14.2817 42.0718 14.139 42.3002 14.1247C42.5285 14.1105 42.7427 14.0962 42.9568 14.0819C43.1709 14.0676 43.3993 14.0676 43.6562 14.0534C43.9132 14.0391 44.113 14.0391 44.2558 14.0248L45.569 13.9677C46.3827 12.7401 46.9537 11.9407 47.2534 11.5981C47.5675 11.2413 47.7387 11.0557 47.7816 11.0272C47.8244 10.9986 47.9243 10.9701 48.0813 10.9701L48.7808 10.8987Z" fill="#626260"/>
<path id="Vector_4" d="M57.5596 25.1591C57.7452 25.1591 57.8594 25.3019 57.9022 25.5873C57.945 25.8728 57.9593 26.1583 57.9593 26.4724C57.9593 26.7864 57.9307 26.9862 57.8736 27.1004C57.5881 27.6429 56.9744 28.3138 56.018 29.0989C55.0616 29.884 54.148 30.2837 53.2915 30.2837C52.7634 30.2837 52.278 30.1266 51.8212 29.8126C51.3787 29.4986 51.1503 28.9419 51.1503 28.1568C51.1503 27.3717 51.3645 26.5866 51.7784 25.83C49.3518 28.8705 47.4675 30.3836 46.0829 30.3836C45.5404 30.3836 45.0979 30.1838 44.7554 29.7983C44.4128 29.4129 44.2557 29.0132 44.2557 28.585C44.2557 28.171 44.3128 27.7428 44.427 27.3003C44.5412 26.8578 44.6697 26.4581 44.7982 26.1012C44.9266 25.7444 45.1265 25.3161 45.3834 24.8023C45.6404 24.2884 45.8402 23.9172 45.9544 23.6746C46.0686 23.4319 46.2827 23.0893 46.5682 22.6182C46.8537 22.1472 47.2106 21.5048 47.6674 20.7055C48.1241 19.9061 48.4953 19.3066 48.795 18.9211C49.0948 18.5357 49.3803 18.3359 49.6658 18.3359C49.9513 18.3359 50.1939 18.4501 50.4081 18.6785C50.6222 18.9069 50.7364 19.1067 50.7364 19.2495C50.7364 19.3922 50.4081 20.0488 49.7514 21.2193C47.8244 24.7166 46.8537 26.7436 46.8537 27.3288C46.8537 27.4716 46.9108 27.543 47.0107 27.543C47.4818 27.543 48.6523 26.5295 50.508 24.5025C52.3637 22.4755 53.4485 21.1765 53.7483 20.6055C54.0481 20.0346 54.3193 19.5492 54.6048 19.1638C54.876 18.7784 55.0901 18.5357 55.2329 18.4501C55.6468 18.1789 56.1893 18.0361 56.8602 18.0076C56.9744 18.0076 57.0457 18.0076 57.1028 18.0218C57.1599 18.0361 57.2313 18.1218 57.3027 18.2645C57.374 18.4073 57.4169 18.5357 57.4169 18.6356C57.3312 18.9069 56.9458 19.6349 56.2463 20.8197C55.5612 22.0044 55.1758 22.6753 55.1044 22.8181C53.9482 25.2019 53.3772 26.7579 53.3772 27.4716C53.3772 27.8855 53.5342 28.0854 53.8482 28.0854C54.4192 28.014 55.1044 27.5572 55.9038 26.7293C56.2035 26.4295 56.489 26.1155 56.7745 25.8015C57.06 25.4874 57.2456 25.3019 57.3027 25.259C57.374 25.1877 57.4597 25.1591 57.5596 25.1591Z" fill="#626260"/>
<path id="Vector_5" d="M61.7992 21.7761C64.0974 19.1638 66.0673 17.8506 67.6803 17.8506C68.08 17.8506 68.4083 17.9648 68.6652 18.2074C68.9222 18.4501 69.0506 18.7499 69.0506 19.1353C69.0506 19.5207 68.7794 20.1488 68.237 21.0481C67.6946 21.9331 67.195 22.6896 66.7382 23.3034C66.4955 23.6175 66.2243 23.7745 65.9102 23.7745C65.6105 23.7745 65.3678 23.6603 65.1965 23.4319C65.0252 23.2035 64.9396 22.9466 64.9396 22.6468C64.9396 21.9759 65.2964 21.2051 66.0244 20.3629L65.9959 20.3343C65.6676 20.3629 64.8825 21.0052 63.5978 22.2328C62.3273 23.4747 61.2425 24.5881 60.3432 25.5588C59.4582 26.5438 58.4875 27.7285 57.4312 29.1417C57.1314 29.5557 56.8745 29.7698 56.6604 29.7698C56.4462 29.7698 56.175 29.6984 55.8324 29.57C55.4898 29.4415 55.2757 29.3416 55.2043 29.2845C55.133 29.2274 55.0901 29.1274 55.0901 28.9847C55.0901 28.8562 55.133 28.6849 55.2043 28.5136C55.2757 28.3281 55.4327 28.0711 55.6326 27.7428C55.8324 27.4145 56.1607 26.8721 56.589 26.1298C57.0172 25.3875 57.6738 24.2598 58.5731 22.761C59.4724 21.2622 60.0006 20.3486 60.1862 20.0346C60.5573 19.3922 60.8571 18.9212 61.0997 18.6357C61.5422 18.079 62.2845 17.8077 63.3266 17.8077C63.555 17.8077 63.6834 17.9505 63.6834 18.2503C63.6834 18.707 63.2552 19.5778 62.413 20.8339L61.7992 21.7761Z" fill="#626260"/>
<path id="Vector_6" d="M77.544 18.8069C77.544 19.4493 77.2871 20.0202 76.7589 20.5056C76.2308 20.9909 75.6455 21.2336 74.9746 21.2336C74.7605 21.2336 74.6177 21.1765 74.5464 21.0766C74.475 20.9766 74.4464 20.8339 74.4464 20.6769C74.4464 20.5198 74.4607 20.3485 74.5035 20.1915C74.1467 20.3057 73.7612 20.4913 73.333 20.734C72.9048 20.9766 72.3766 21.3335 71.7485 21.8188C71.1205 22.3042 70.8064 22.6468 70.8064 22.8894C70.8064 22.9608 70.9206 23.0036 71.149 23.0036C71.3774 23.0036 71.7343 22.918 72.2053 22.7609C72.6764 22.6039 73.019 22.5183 73.2045 22.5183C73.3901 22.5183 73.5186 22.5326 73.5757 22.5468C73.7041 22.6182 73.8326 22.7609 73.9897 22.9893C74.1324 23.2177 74.2038 23.4033 74.2038 23.5318C74.2038 23.6602 74.0753 23.8315 73.8184 24.0457C73.5614 24.2598 73.2759 24.4168 72.9619 24.531C72.6336 24.6452 72.4195 24.7308 72.3195 24.7879C70.264 25.9442 69.2362 26.7293 69.2362 27.1575C69.2362 27.9141 69.8786 28.2995 71.1776 28.2995C72.0055 28.2995 72.8477 28.0425 73.6756 27.5144C74.3893 27.0719 75.0317 26.6151 75.6027 26.144C76.1737 25.6872 76.5305 25.4017 76.6875 25.2875C76.8446 25.1733 76.9588 25.1305 77.0301 25.1305C77.2871 25.1305 77.4155 25.416 77.4155 25.987C77.4155 26.558 77.387 26.9291 77.3156 27.1004C77.2442 27.286 77.0587 27.5001 76.7304 27.7713C74.6463 29.47 72.6621 30.3264 70.8064 30.3264C69.8072 30.3264 69.0221 30.1837 68.4226 29.9125C67.3234 29.4129 66.781 28.6563 66.781 27.6286C66.781 26.2868 67.7089 25.259 69.5788 24.5738C69.2077 24.4025 68.965 24.2027 68.8651 23.9315C68.7509 23.6745 68.7081 23.2606 68.7081 22.6896C68.7081 22.1186 68.9793 21.5191 69.5074 20.8767C70.0356 20.2344 70.6922 19.7062 71.4631 19.3065C73.176 18.3787 74.7176 17.9219 76.0595 17.9219C76.3878 17.9219 76.7018 17.9932 77.0444 18.1503C77.387 18.3073 77.544 18.5214 77.544 18.8069Z" fill="#626260"/>
<path id="Vector_7" d="M110.861 8.87179H111.046C111.103 8.87179 111.146 8.87179 111.16 8.88607C111.175 8.90034 111.189 8.90034 111.218 8.91462C111.246 8.91462 111.26 8.92889 111.289 8.95744C111.332 9.00026 111.403 9.04309 111.489 9.08591C111.603 9.17156 111.66 9.27148 111.66 9.38568C111.66 9.49987 111.546 9.74254 111.318 10.1137C111.089 10.4848 110.504 11.3841 109.547 12.8401C107.363 16.1804 105.408 19.2922 103.681 22.1471C100.697 27.1147 99.1842 29.6127 99.1556 29.6412C99.1271 29.6698 99.1128 29.6983 99.0985 29.7269C99.0842 29.784 99.0557 29.8125 98.9843 29.8125L98.7845 29.7697L98.3848 29.8696L98.1564 29.8268L97.9137 29.8696H97.8281L97.0144 29.9838C96.5291 29.9838 96.2864 29.8125 96.2864 29.4842C96.2864 29.3415 96.3293 29.1702 96.4149 28.9703C96.7147 28.2566 98.2421 25.6729 100.983 21.1907C99.1842 21.2335 97.3999 21.2621 95.6441 21.2621L92.5037 21.2478C91.9898 22.0757 91.2761 23.2463 90.3768 24.7736C88.4354 28.0996 87.4077 29.7697 87.2792 29.7983C87.1507 29.8268 87.0508 29.8554 86.9652 29.8554C86.8795 29.8554 86.8082 29.8125 86.7511 29.7126C86.6797 29.627 86.6368 29.5699 86.6083 29.5699C86.5798 29.5699 86.5369 29.5841 86.4513 29.627C86.3799 29.6698 86.2657 29.6841 86.1087 29.6841L85.7661 29.6698L85.6376 29.5841C85.6234 29.5841 85.6091 29.5984 85.5948 29.627C85.5805 29.6555 85.5377 29.6698 85.4806 29.6698C85.0667 29.6698 84.8525 29.4985 84.8525 29.1416C84.8525 28.9132 84.9382 28.5992 85.0952 28.2138C85.2665 27.8284 85.4806 27.4144 85.7518 26.9719C86.0231 26.5294 86.7082 25.4588 87.8359 23.7887C88.9493 22.1186 89.506 21.2764 89.506 21.2621C89.3205 21.2478 89.1063 21.2478 88.8637 21.2335C88.3641 21.2335 88.0215 21.2193 87.8074 21.1764C87.2506 21.0765 86.8653 20.6197 86.6654 19.8061C86.5512 19.4064 86.5084 19.1495 86.5227 19.021C86.5227 18.764 86.6369 18.6213 86.8653 18.6213L87.2507 18.7212C87.4505 18.7355 87.9073 18.7498 88.6496 18.7926C89.3918 18.8354 89.92 18.8497 90.2483 18.8497L91.0762 18.8211C92.3467 16.837 93.8598 14.5816 95.6298 12.0693C94.3451 13.1256 92.9177 13.6538 91.3475 13.6538C90.6052 13.6538 89.9628 13.4825 89.4347 13.1256C88.8922 12.7687 88.6353 12.312 88.6353 11.7695C88.6353 11.2271 88.8351 10.7989 89.2491 10.4705C89.6631 10.1565 90.0485 9.99948 90.4196 9.99948C90.7907 9.99948 90.9763 10.0566 90.9763 10.1708C90.9763 10.2136 90.9192 10.2564 90.8193 10.2992C90.7194 10.3563 90.6623 10.3992 90.6623 10.442C90.6623 10.599 90.8336 10.7418 91.1761 10.856C91.5187 10.9701 91.9041 11.0415 92.3324 11.0415C92.7606 11.0415 93.2745 10.9131 93.9026 10.6704C94.5307 10.4277 95.173 10.0994 95.8439 9.71399C96.786 9.17156 97.5283 8.71477 98.0708 8.35791C98.3848 8.20089 98.6703 8.12952 98.9558 8.12952C99.2413 8.12952 99.4268 8.15807 99.5553 8.22944C99.6838 8.28654 99.7694 8.35791 99.8265 8.41501C99.8836 8.47211 99.955 8.55775 100.012 8.65768C100.083 8.7576 100.141 8.84324 100.212 8.88607C100.269 8.94317 100.312 9.00026 100.312 9.07164C100.312 9.14301 100.269 9.24293 100.198 9.39995C100.126 9.5427 99.7552 10.1422 99.0843 11.1843C98.4133 12.2263 97.5426 13.5538 96.4863 15.1669C95.43 16.7799 94.6591 17.9647 94.1738 18.7355C96.786 18.7355 99.5981 18.6927 102.624 18.5928C106.307 12.783 108.249 9.74254 108.448 9.45705C108.648 9.17156 108.834 8.98599 109.005 8.90034C109.176 8.8147 109.376 8.77187 109.619 8.77187L110.861 8.87179Z" fill="#626260"/>
<path id="Vector_8" d="M115.628 18.6071C115.928 18.6071 116.228 18.7355 116.528 19.0068C116.842 19.278 116.985 19.6777 116.985 20.2201C116.985 20.7625 116.799 21.462 116.414 22.3327C116.028 23.1892 115.514 24.0742 114.843 24.9735C114.187 25.8585 113.444 26.7007 112.659 27.4858C111.86 28.2709 111.004 28.9133 110.09 29.4129C109.162 29.9125 108.334 30.1694 107.578 30.1694C106.821 30.1694 106.222 29.9268 105.765 29.4557C105.308 28.9847 105.08 28.328 105.08 27.4858C105.08 26.6436 105.294 25.7015 105.708 24.688C106.122 23.6603 106.65 22.761 107.306 21.9759C107.963 21.1908 108.663 20.4913 109.433 19.8632C111.018 18.5785 112.417 17.9504 113.616 17.9504C114.158 17.9504 114.558 18.0789 114.829 18.3501C114.929 18.4358 114.972 18.5214 114.972 18.5785V18.6642C115.129 18.6071 115.343 18.6071 115.628 18.6071ZM114.158 20.5484H114.058C113.716 20.5484 113.544 20.3057 113.544 19.8061C112.831 20.0345 112.088 20.4485 111.303 21.0337C110.518 21.619 109.819 22.3185 109.205 23.1178C107.949 24.7166 107.321 26.0727 107.306 27.1718C107.306 27.7142 107.506 27.9854 107.906 27.9854C108.306 27.9854 108.905 27.7142 109.69 27.2003C110.475 26.6865 111.26 25.9299 112.046 24.945C112.816 23.9743 113.402 23.1178 113.787 22.4041C114.172 21.6904 114.372 21.205 114.372 20.9338C114.358 20.6769 114.287 20.5484 114.158 20.5484Z" fill="#626260"/>
<path id="Vector_9" d="M116.671 29.841L115.957 29.8125H115.7C115.6 29.7839 115.5 29.7268 115.386 29.6412C115.272 29.5555 115.186 29.4842 115.129 29.4556C115.072 29.4271 115.043 29.3414 115.043 29.2415C115.043 29.1416 115.086 28.956 115.157 28.7133C117.056 24.5309 118.897 21.1764 120.682 18.6783C120.881 18.4071 121.196 18.193 121.624 18.0503C122.052 17.9075 122.48 17.8362 122.894 17.8362C123.137 17.8362 123.265 18.0217 123.265 18.4071C123.265 18.5213 123.223 18.6641 123.151 18.8354C123.08 19.0209 122.88 19.3064 122.566 19.7204C122.252 20.1344 121.881 20.6054 121.452 21.1193C121.024 21.6332 120.782 21.9472 120.724 22.0329C122.066 20.6482 123.265 19.6205 124.35 18.9353C125.435 18.2644 126.206 17.9218 126.691 17.9218C127.177 17.9218 127.548 18.0645 127.805 18.3358C128.062 18.607 128.19 18.9067 128.19 19.2208C128.19 19.5348 128.162 19.806 128.119 20.0059C128.076 20.22 127.99 20.4341 127.876 20.6625C127.762 20.8909 127.662 21.0907 127.576 21.2478C127.491 21.4048 127.348 21.6189 127.162 21.8758C126.962 22.1328 126.834 22.3184 126.763 22.4183C126.691 22.5182 126.534 22.7038 126.306 22.975C126.077 23.2462 125.949 23.4032 125.935 23.4318C126.206 23.1606 126.591 22.7609 127.077 22.2184C127.562 21.676 127.976 21.2335 128.319 20.8766C128.661 20.5198 129.075 20.1058 129.589 19.649C130.103 19.1922 130.574 18.8211 131.002 18.5499C132.058 17.8932 133.129 17.5507 134.214 17.5507C134.585 17.5507 134.899 17.6649 135.156 17.9075C135.413 18.1502 135.541 18.4214 135.541 18.7497C135.541 19.078 135.142 19.8631 134.357 21.0907C133.572 22.3184 132.772 23.5602 131.987 24.8021C131.202 26.044 130.802 26.8291 130.802 27.1574C130.802 27.5999 130.888 27.8711 131.045 27.9568C131.216 28.0424 131.416 28.071 131.645 28.0567C131.873 28.0424 132.215 27.8854 132.629 27.5999C133.058 27.3144 133.429 27.0289 133.757 26.7149C134.3 26.2296 134.785 25.7585 135.256 25.3017C135.356 25.2161 135.456 25.1733 135.584 25.1733C135.77 25.1733 135.884 25.316 135.927 25.6015C135.97 25.887 135.984 26.1725 135.984 26.4865C135.984 26.8006 135.955 27.0004 135.898 27.1146C135.613 27.657 134.985 28.3279 134.028 29.1273C133.058 29.9124 132.13 30.3121 131.245 30.3121C131.131 30.3121 131.059 30.3121 131.016 30.2978C130.017 30.1979 129.318 29.9267 128.932 29.4699C128.547 29.0131 128.361 28.4707 128.361 27.8569C128.361 27.2431 128.575 26.4722 129.004 25.5872C129.432 24.7022 129.889 23.8886 130.403 23.1748C130.917 22.4611 131.373 21.8045 131.802 21.2192C132.23 20.634 132.444 20.3199 132.444 20.2771C132.444 20.2343 132.401 20.2057 132.33 20.2057C132.03 20.2057 131.359 20.6911 130.303 21.676C128.518 23.3461 126.977 24.9591 125.678 26.5008C125.335 26.9148 124.522 27.9425 123.251 29.6126C123.108 29.8125 122.866 29.9124 122.552 29.9124C122.238 29.9124 121.909 29.8553 121.567 29.7268C121.224 29.5984 121.053 29.4413 121.053 29.2558C121.053 29.1559 121.824 27.7855 123.38 25.1447C124.935 22.5039 125.706 21.0622 125.706 20.8338C125.706 20.5911 125.564 20.4769 125.278 20.4769C124.993 20.4769 124.393 20.9052 123.494 21.7616C121.024 24.1169 119.111 26.4722 117.755 28.799C117.67 28.9417 117.498 29.1559 117.242 29.4413C116.985 29.7268 116.756 29.841 116.671 29.841Z" fill="#626260"/>
<path id="Vector_10" d="M144.977 18.8069C144.977 19.4493 144.72 20.0202 144.192 20.5056C143.664 20.9909 143.078 21.2336 142.407 21.2336C142.193 21.2336 142.051 21.1765 141.979 21.0766C141.908 20.9766 141.879 20.8339 141.879 20.6769C141.879 20.5198 141.894 20.3485 141.936 20.1915C141.58 20.3057 141.194 20.4913 140.766 20.734C140.338 20.9766 139.81 21.3335 139.181 21.8188C138.553 22.3042 138.239 22.6468 138.239 22.8894C138.239 22.9608 138.354 23.0036 138.582 23.0036C138.81 23.0036 139.167 22.918 139.638 22.7609C140.109 22.6039 140.452 22.5183 140.637 22.5183C140.823 22.5183 140.952 22.5326 141.009 22.5468C141.137 22.6182 141.266 22.7609 141.423 22.9893C141.565 23.2177 141.637 23.4033 141.637 23.5318C141.637 23.6602 141.508 23.8315 141.251 24.0457C140.994 24.2598 140.709 24.4168 140.395 24.531C140.066 24.6452 139.852 24.7308 139.752 24.7879C137.697 25.9442 136.669 26.7293 136.669 27.1575C136.669 27.9141 137.312 28.2995 138.61 28.2995C139.438 28.2995 140.281 28.0425 141.109 27.5144C141.822 27.0719 142.465 26.6151 143.036 26.144C143.607 25.6872 143.963 25.4017 144.12 25.2875C144.277 25.1733 144.392 25.1305 144.463 25.1305C144.72 25.1305 144.848 25.416 144.848 25.987C144.848 26.558 144.82 26.9291 144.749 27.1004C144.677 27.286 144.492 27.5001 144.163 27.7713C142.079 29.47 140.095 30.3264 138.239 30.3264C137.24 30.3264 136.455 30.1837 135.855 29.9125C134.756 29.4129 134.214 28.6563 134.214 27.6286C134.214 26.2868 135.142 25.259 137.012 24.5738C136.641 24.4025 136.398 24.2027 136.298 23.9315C136.184 23.6745 136.141 23.2606 136.141 22.6896C136.141 22.1186 136.412 21.5191 136.94 20.8767C137.469 20.2344 138.125 19.7062 138.896 19.3065C140.609 18.3787 142.151 17.9219 143.492 17.9219C143.821 17.9219 144.135 17.9932 144.477 18.1503C144.82 18.3073 144.977 18.5214 144.977 18.8069Z" fill="#626260"/>
</g>
<g id="Group_2">
<path id="Vector_11" d="M0.27594 33.7952C4.03014 35.3654 7.85571 36.5788 11.7527 37.5066C15.6211 38.4773 19.5608 39.1625 23.5006 39.5907C25.4705 39.8619 27.4547 39.8905 29.4103 40.076C31.3944 40.0903 33.3643 40.2473 35.3342 40.1331L38.289 40.0618C39.274 40.0475 40.2589 39.919 41.2439 39.8619C42.2288 39.7763 43.2137 39.7334 44.1844 39.605L47.1107 39.191C51.0362 38.7628 54.8475 37.8492 58.6445 36.7501C62.4844 35.6937 66.1101 34.2948 69.9499 32.8388C73.8754 31.3971 78.1292 30.455 82.4402 30.9118C84.5671 31.183 86.7083 31.8682 88.4498 33.1243C90.2055 34.3662 91.4617 36.1363 92.261 37.9919C91.062 36.3361 89.5632 34.98 87.8359 34.1378C86.1087 33.2956 84.2102 32.953 82.326 33.0101C78.5147 33.0672 74.7605 34.3377 71.2346 35.9364C67.6517 37.7065 63.7691 39.3052 59.8578 40.6327C55.9181 41.9032 51.8498 42.9167 47.7245 43.4305C39.5166 44.5154 31.1089 44.5297 23.001 42.8881C18.9328 42.1458 14.9644 40.9896 11.1246 39.5193C7.31327 37.9919 3.58763 36.2076 0.27594 33.7952Z" fill="#626260"/>
</g>
<g id="Group_3">
<path id="Vector_12" d="M136.783 10.0281C133.6 8.67204 130.36 7.61572 127.077 6.7878C123.808 5.91705 120.496 5.30325 117.17 4.87502C115.514 4.61807 113.83 4.56098 112.174 4.36113C110.504 4.31831 108.848 4.14701 107.178 4.21839C106.35 4.23266 105.508 4.23266 104.68 4.21839C103.852 4.21839 103.01 4.30403 102.182 4.33258C101.354 4.38968 100.512 4.40396 99.6838 4.4896L97.2 4.78937C93.8741 5.06058 90.648 5.74576 87.422 6.58796C84.1531 7.37306 81.0556 8.48647 77.7581 9.59989C74.3751 10.7276 70.7065 11.4128 67.0237 10.8989C65.2108 10.5991 63.3837 9.95675 61.9419 8.81479C60.4717 7.6871 59.4724 6.14545 58.8586 4.53242C59.8721 5.9456 61.1283 7.10184 62.57 7.81557C64.0118 8.5293 65.5962 8.82906 67.1807 8.81479C70.3782 8.81479 73.5471 7.78702 76.5448 6.50231C79.5995 5.04631 82.9541 3.7616 86.2943 2.70529C89.6631 1.69179 93.1746 0.920968 96.6862 0.549831C103.695 -0.192445 110.861 -0.0211512 117.727 1.60615C121.167 2.33415 124.522 3.44756 127.733 4.81792C130.959 6.21682 134.071 7.84412 136.783 10.0281Z" fill="#626260"/>
</g>
</g>
</svg>
