<svg width="92" height="93" viewBox="0 0 92 93" fill="none" xmlns="http://www.w3.org/2000/svg">
<g id="Icon">
<path d="M92 89.8347H89.0322V92.8025H92V89.8347Z" fill="#45AEC4"/>
<path d="M71.2258 15.6412V3.77023H47.4839V0.80249H44.5161V3.77023H20.7742V35.833L11.871 30.6932V30.4799H11.5037L11.1828 30.2944L11.0752 30.4799H0V51.2541C0 54.5279 2.66169 57.1896 5.93548 57.1896H20.7742V63.1251H33.8026L28.4606 89.8347H0V92.8025H86.0645V89.8347H63.5394L58.1974 63.1251H71.2258V39.3831H83.0968V36.4154H80.5445L83.2303 25.6759L77.7289 18.8C83.299 19.7756 87.5484 24.6353 87.5484 30.4799H90.5161C90.5161 25.6239 88.1605 21.317 84.5417 18.6089H92V15.6412H71.2258ZM8.90323 51.2541C8.90323 52.8901 7.57145 54.2218 5.93548 54.2218C4.29952 54.2218 2.96774 52.8901 2.96774 51.2541V33.4477H8.90323V51.2541ZM19.8709 39.7819L22.8386 44.9198L13.2491 50.4584L19.1827 40.1789L19.8709 39.7819ZM11.871 35.0391L12.2698 34.3472L17.4077 37.315L11.871 46.9082V35.0391ZM12.663 54.2218L22.9444 48.2864H23.7419V54.2218H12.663ZM44.5161 89.8347H31.4877L36.8297 63.1251H44.5161V89.8347ZM60.5123 89.8347H47.4839V63.1251H55.1703L60.5123 89.8347ZM68.1245 25.6759L70.8103 36.4154H68.2581V60.1573H23.7419V57.1896H26.7097V46.1125L26.8933 46.0049L26.7097 45.6877V45.3186H26.4964L23.7419 40.548V6.73797H68.2581V15.6412H59.3548V18.6089H66.8131C63.1944 21.317 60.8387 25.6239 60.8387 30.4799H63.8065C63.8065 24.6353 68.0559 19.7756 73.626 18.7981L68.1245 25.6759ZM79.9955 26.3826L77.4877 36.4154H73.8671L71.3594 26.3807L74.1936 22.838V28.996H77.1613V22.8398L79.9955 26.3826Z" fill="#45AEC4"/>
<path d="M32.6451 12.6734H29.6774V15.6411H32.6451V12.6734Z" fill="#45AEC4"/>
<path d="M62.3225 51.2541H59.3548V54.2218H62.3225V51.2541Z" fill="#45AEC4"/>
<path d="M59.3549 33.4476C59.3549 26.0839 53.3637 20.0927 46 20.0927C43.5999 20.0927 41.3499 20.7382 39.4005 21.8511L35.3291 16.2532L32.929 17.9986L37.0059 23.604C34.3331 26.0468 32.6452 29.5487 32.6452 33.4476C32.6452 40.8113 38.6363 46.8024 46 46.8024C48.4002 46.8024 50.6501 46.1569 52.5995 45.044L56.6709 50.6419L59.0711 48.8965L54.9941 43.2912C57.667 40.8484 59.3549 37.3465 59.3549 33.4476ZM46 43.8347C40.2741 43.8347 35.6129 39.1735 35.6129 33.4476C35.6129 30.5355 36.8223 27.9016 38.7606 26.0152L50.843 42.6309C49.3944 43.3951 47.7491 43.8347 46 43.8347ZM41.157 24.2661C42.6057 23.5001 44.2509 23.0605 46 23.0605C51.7259 23.0605 56.3871 27.7217 56.3871 33.4476C56.3871 36.3597 55.1778 38.9936 53.2395 40.8799L41.157 24.2661Z" fill="#45AEC4"/>
</g>
</svg>
