<svg width="87" height="87" viewBox="0 0 87 87" fill="none" xmlns="http://www.w3.org/2000/svg">
<g id="Icon">
<g id="Group">
<g id="Group_2">
<g id="Group_3">
<path id="Vector" d="M59.2667 76.3741H56.4V69.2075V14.7408C56.4 14.4541 56.2567 14.0241 56.1133 13.8808L51.9567 1.4108C51.8134 0.837471 51.24 0.407471 50.6667 0.407471C50.0933 0.407471 49.52 0.837471 49.3767 1.4108L45.22 13.8808C45.0767 14.1675 44.9333 14.4541 44.9333 14.7408V69.2075V84.9741C44.9333 85.8341 45.5067 86.4075 46.3667 86.4075H54.9667C55.8267 86.4075 56.4 85.8341 56.4 84.9741V79.2408H60.7C61.56 79.2408 62.1334 78.6675 62.1334 77.8075V34.8075H59.2667V76.3741ZM47.8 16.1741H53.5333V67.7741H47.8V16.1741ZM50.6667 6.42747L52.96 13.3075H48.3734L50.6667 6.42747ZM53.5333 83.5408H47.8V70.6408H53.5333V83.5408Z" fill="#45AEC4"/>
<path id="Vector_2" d="M85.0667 0.407471H69.3C68.44 0.407471 67.8667 0.980804 67.8667 1.8408V84.9741C67.8667 85.8341 68.44 86.4075 69.3 86.4075H85.0667C85.9267 86.4075 86.5 85.8341 86.5 84.9741V1.8408C86.5 0.980804 85.9267 0.407471 85.0667 0.407471ZM83.6334 83.5408H70.7334V73.5075H77.9V70.6408H70.7334V59.1741H77.9V56.3075H70.7334V44.8408H77.9V41.9741H70.7334V30.5075H77.9V27.6408H70.7334V16.1741H77.9V13.3075H70.7334V3.27414H83.6334V83.5408Z" fill="#45AEC4"/>
<path id="Vector_3" d="M20.5667 14.7407C9.53 14.7407 0.5 23.7707 0.5 34.8074C0.5 42.5474 4.94333 49.5707 11.9667 52.8674V63.4741V70.6407C11.9667 71.5007 12.54 72.0741 13.4 72.0741H19.1333V76.3741H22V72.0741H27.7333C28.5933 72.0741 29.1667 71.5007 29.1667 70.6407V63.4741V52.8674C36.19 49.5707 40.6333 42.5474 40.6333 34.8074C40.6333 23.7707 31.6033 14.7407 20.5667 14.7407ZM26.3 69.2074H14.8333V64.9074H26.3V69.2074ZM27.16 50.7174C26.5867 50.8607 26.3 51.4341 26.3 52.0074V62.0407H14.8333V59.1741H22V56.3074H14.8333V52.0074C14.8333 51.4341 14.5467 50.8607 13.9733 50.7174C7.52333 47.9941 3.36667 41.6874 3.36667 34.8074C3.36667 25.3474 11.1067 17.6074 20.5667 17.6074C30.0267 17.6074 37.7667 25.3474 37.7667 34.8074C37.7667 41.6874 33.61 47.9941 27.16 50.7174Z" fill="#45AEC4"/>
<path id="Vector_4" d="M23.8634 26.6375L20.5668 29.9341L17.2701 26.6375L15.2634 28.6441L19.1334 32.5141V47.7075H22.0001V32.5141L25.8701 28.6441L23.8634 26.6375Z" fill="#45AEC4"/>
</g>
</g>
</g>
</g>
</svg>
