<svg width="91" height="91" viewBox="0 0 91 91" fill="none" xmlns="http://www.w3.org/2000/svg">
<g id="Icon">
<path d="M90.5 42.6092V38.9639L47.4216 7.77052H43.5784L33.8871 14.7872V9.22213H36.7903V0.512451H7.75806V9.22213H10.6613V31.606L0.5 38.9639V42.6092H7.75806V64.3834H0.5V84.706H7.75806V90.5125H83.2419V60.0286C87.2448 60.0286 90.5 56.7733 90.5 52.7705C90.5 48.7677 87.2448 45.5125 83.2419 45.5125V42.6092H90.5ZM10.6613 3.41568H33.8871V6.3189H10.6613V3.41568ZM30.9839 9.22213V16.8903L13.5645 29.5048V9.22213H30.9839ZM6.30645 75.9963V81.8028H3.40323V67.2866H70.1774V81.8028H67.2742V75.9963H64.371V81.8028H61.4677V75.9963H58.5645V81.8028H55.6613V75.9963H52.7581V81.8028H49.8548V75.9963H46.9516V81.8028H44.0484V75.9963H41.1452V81.8028H38.2419V75.9963H35.3387V81.8028H32.4355V75.9963H29.5323V81.8028H26.629V75.9963H23.7258V81.8028H20.8226V75.9963H17.9194V81.8028H15.0161V75.9963H12.1129V81.8028H9.20968V75.9963H6.30645ZM80.3387 87.6092H10.6613V84.706H73.0807V64.3834H10.6613V42.6092H80.3387V45.5125H27.6415L16.7544 52.7705L27.6415 60.0286H80.3387V87.6092ZM77.4355 48.4157V57.1254H74.5323V48.4157H77.4355ZM30.9839 51.3189V48.4157H71.629V51.3189H30.9839ZM71.629 54.2221V57.1254H30.9839V54.2221H71.629ZM28.0806 48.7096V56.8332L21.9875 52.7705L28.0806 48.7096ZM87.5968 52.7705C87.5968 55.1711 85.6425 57.1254 83.2419 57.1254H80.3387V48.4157H83.2419C85.6425 48.4157 87.5968 50.3699 87.5968 52.7705ZM4.42661 39.706L44.5183 10.6737H46.4817L86.5734 39.706H4.42661Z" fill="#45AEC4"/>
<path d="M45.5 15.0281C39.0966 15.0281 33.8871 20.2376 33.8871 26.641C33.8871 33.0444 39.0966 38.2539 45.5 38.2539C51.9034 38.2539 57.1129 33.0444 57.1129 26.641C57.1129 20.2376 51.9034 15.0281 45.5 15.0281ZM45.5 35.3507C40.697 35.3507 36.7903 31.444 36.7903 26.641C36.7903 21.838 40.697 17.9313 45.5 17.9313C50.303 17.9313 54.2097 21.838 54.2097 26.641C54.2097 31.444 50.303 35.3507 45.5 35.3507Z" fill="#45AEC4"/>
</g>
</svg>
