<svg width="88" height="95" viewBox="0 0 88 95" fill="none" xmlns="http://www.w3.org/2000/svg">
<g id="Icon">
<path d="M87.5 21.1799V0.617432H57.8407V32.9299H51.9088V50.5549H26.2053V68.1799H0.5V94.6174H80.5801V32.9299H60.8066V21.1799H87.5ZM60.8066 3.55493H84.5341V18.2424H60.8066V3.55493ZM29.1713 53.4924H51.9107V58.3889H29.1713V53.4924ZM3.46593 71.1174H26.2053V76.0139H3.46593V71.1174ZM77.6142 91.6799H3.46593V78.9514H26.2053V85.3166H29.1713V61.3264H51.9107V71.6076H54.8766V43.7014H77.6142V91.6799ZM77.6142 35.8674V40.7639H54.8748V35.8674H77.6142Z" fill="#45AEC4"/>
<path d="M80.0852 6.49243H73.1653V9.42993H80.0852V6.49243Z" fill="#45AEC4"/>
<path d="M80.085 12.3674H65.2554V15.3049H80.085V12.3674Z" fill="#45AEC4"/>
<path d="M32.6303 11.3889V14.3264H40.9145L3.89966 50.9845L5.99805 53.0628L43.011 16.4028V22.6487H45.9769V11.3889H32.6303Z" fill="#45AEC4"/>
<path d="M9.89072 81.8889H5.93677V84.8264H9.89072V81.8889Z" fill="#45AEC4"/>
<path d="M23.7325 81.8889H19.7786V84.8264H23.7325V81.8889Z" fill="#45AEC4"/>
<path d="M35.5963 64.2639H31.6423V67.2014H35.5963V64.2639Z" fill="#45AEC4"/>
<path d="M49.4378 64.2639H45.4839V67.2014H49.4378V64.2639Z" fill="#45AEC4"/>
<path d="M61.3016 46.6389H57.3477V49.5764H61.3016V46.6389Z" fill="#45AEC4"/>
<path d="M75.1412 46.6389H71.1873V49.5764H75.1412V46.6389Z" fill="#45AEC4"/>
</g>
</svg>
